G75*
%MOIN*%
%OFA0B0*%
%FSLAX26Y26*%
%IPPOS*%
%LPD*%
%AMOC8*
5,1,8,0,0,1.08239X$1,22.5*
%
%ADD10R,0.070992X0.019811*%
%ADD11R,0.047370X0.051307*%
%ADD12R,0.051307X0.047370*%
%ADD13R,0.145795X0.047370*%
%ADD14R,0.141858X0.067055*%
%ADD15R,0.047370X0.145795*%
%ADD16R,0.067055X0.141858*%
%ADD17R,0.051307X0.057213*%
%ADD18C,0.035811*%
%ADD19R,0.061150X0.061150*%
%ADD20R,0.051559X0.051559*%
D10*
X00987697Y00930780D03*
X00987697Y00956370D03*
X00987697Y00981961D03*
X00987697Y01007551D03*
X00987697Y01033142D03*
X00987697Y01058732D03*
X00987697Y01084323D03*
X00987697Y01109913D03*
X00987697Y01135504D03*
X00987697Y01161094D03*
X01208169Y01161094D03*
X01208169Y01135504D03*
X01208169Y01109913D03*
X01208169Y01084323D03*
X01208169Y01058732D03*
X01208169Y01033142D03*
X01208169Y01007551D03*
X01208169Y00981961D03*
X01208169Y00956370D03*
X01208169Y00930780D03*
X02041831Y00938906D03*
X02041831Y00964496D03*
X02041831Y00990087D03*
X02041831Y01015677D03*
X02041831Y01041268D03*
X02041831Y01066858D03*
X02041831Y01092449D03*
X02041831Y01118039D03*
X02041831Y01143630D03*
X02041831Y01169220D03*
X02262303Y01169220D03*
X02262303Y01143630D03*
X02262303Y01118039D03*
X02262303Y01092449D03*
X02262303Y01066858D03*
X02262303Y01041268D03*
X02262303Y01015677D03*
X02262303Y00990087D03*
X02262303Y00964496D03*
X02262303Y00938906D03*
D11*
X02425000Y01016535D03*
X02425000Y01083465D03*
X00875000Y01116535D03*
X00875000Y01183465D03*
X00800000Y01208465D03*
X00800000Y01141535D03*
D12*
X00816535Y00950000D03*
X00883465Y00950000D03*
X02266535Y01250000D03*
X02333465Y01250000D03*
X02491535Y01125000D03*
X02558465Y01125000D03*
D13*
G36*
X02843522Y00901154D02*
X02734837Y00998329D01*
X02766410Y01033642D01*
X02875095Y00936467D01*
X02843522Y00901154D01*
G37*
G36*
X02791039Y00842455D02*
X02682354Y00939630D01*
X02713927Y00974943D01*
X02822612Y00877768D01*
X02791039Y00842455D01*
G37*
G36*
X02738556Y00783756D02*
X02629871Y00880931D01*
X02661444Y00916244D01*
X02770129Y00819069D01*
X02738556Y00783756D01*
G37*
G36*
X02686073Y00725057D02*
X02577388Y00822232D01*
X02608961Y00857545D01*
X02717646Y00760370D01*
X02686073Y00725057D01*
G37*
G36*
X02633590Y00666358D02*
X02524905Y00763533D01*
X02556478Y00798846D01*
X02665163Y00701671D01*
X02633590Y00666358D01*
G37*
D14*
G36*
X02726785Y00445721D02*
X02621034Y00540273D01*
X02665727Y00590261D01*
X02771478Y00495709D01*
X02726785Y00445721D01*
G37*
G36*
X03060052Y00818459D02*
X02954301Y00913011D01*
X02998994Y00962999D01*
X03104745Y00868447D01*
X03060052Y00818459D01*
G37*
D15*
X02807480Y01500000D03*
X02728740Y01500000D03*
X02650000Y01500000D03*
X02571260Y01500000D03*
X02492520Y01500000D03*
X01407480Y01500000D03*
X01328740Y01500000D03*
X01250000Y01500000D03*
X01171260Y01500000D03*
X01092520Y01500000D03*
X00507480Y01100000D03*
X00428740Y01100000D03*
X00350000Y01100000D03*
X00271260Y01100000D03*
X00192520Y01100000D03*
X01553150Y00300000D03*
X01631890Y00300000D03*
X01710630Y00300000D03*
X01789370Y00300000D03*
X01868110Y00300000D03*
X01946850Y00300000D03*
D16*
X02039370Y00516535D03*
X01460630Y00516535D03*
X00600000Y01318504D03*
X00100000Y01318504D03*
X01000000Y01718504D03*
X01500000Y01718504D03*
X02400000Y01718504D03*
X02900000Y01718504D03*
D17*
X02058465Y01250000D03*
X01991535Y01250000D03*
X01991535Y00850000D03*
X02058465Y00850000D03*
X01383465Y00950000D03*
X01316535Y00950000D03*
X01316535Y01175000D03*
X01383465Y01175000D03*
D18*
X01425000Y01200000D03*
X01400000Y01275000D03*
X01525000Y01150000D03*
X01550000Y01100000D03*
X01525000Y01075000D03*
X01475000Y01075000D03*
X01525000Y00975000D03*
X01700000Y00975000D03*
X01750000Y00850000D03*
X01700000Y00800000D03*
X01600000Y00850000D03*
X01525000Y00725000D03*
X01700000Y00700000D03*
X01750000Y00700000D03*
X01775000Y00675000D03*
X01800000Y00700000D03*
X01875000Y00675000D03*
X01800000Y00625000D03*
X01725000Y00650000D03*
X01825000Y00775000D03*
X02025000Y00700000D03*
X02075000Y00700000D03*
X02075000Y00775000D03*
X02250000Y00800000D03*
X02275000Y00775000D03*
X02275000Y00675000D03*
X02175000Y00625000D03*
X02175000Y00575000D03*
X02100000Y00550000D03*
X02275000Y00550000D03*
X02275000Y00475000D03*
X02425000Y00575000D03*
X02500000Y00575000D03*
X02525000Y00650000D03*
X02475000Y00675000D03*
X02400000Y00675000D03*
X02425000Y00775000D03*
X02475000Y00775000D03*
X02500000Y00825000D03*
X02700000Y00850000D03*
X02875000Y00775000D03*
X02925000Y00750000D03*
X02975000Y00800000D03*
X02975000Y00850000D03*
X03000000Y01050000D03*
X02700000Y01225000D03*
X02425000Y01400000D03*
X02350000Y01375000D03*
X02250000Y01375000D03*
X02212500Y01412500D03*
X02150000Y01350000D03*
X02300000Y01450000D03*
X02350000Y01500000D03*
X02225000Y01575000D03*
X02125000Y01675000D03*
X02025000Y01550000D03*
X01975000Y01550000D03*
X01825000Y01550000D03*
X01650000Y01550000D03*
X01650000Y01450000D03*
X01825000Y01400000D03*
X01900000Y01400000D03*
X01925000Y01300000D03*
X01925000Y01250000D03*
X01775000Y01225000D03*
X01775000Y01175000D03*
X01700000Y01300000D03*
X01575000Y01200000D03*
X01850000Y01050000D03*
X01850000Y00950000D03*
X02150000Y01075000D03*
X02200000Y00975000D03*
X02325000Y01050000D03*
X02350000Y01075000D03*
X02650000Y01500000D03*
X01475000Y01525000D03*
X01350000Y01675000D03*
X01200000Y01675000D03*
X01000000Y01575000D03*
X01250000Y01500000D03*
X00800000Y01350000D03*
X00600000Y01100000D03*
X00500000Y00975000D03*
X00350000Y01100000D03*
X00300000Y01225000D03*
X00800000Y01025000D03*
X00875000Y01025000D03*
X00900000Y01050000D03*
X01075000Y01075000D03*
X01275000Y01075000D03*
X01275000Y01125000D03*
X01375000Y00950000D03*
X01350000Y00825000D03*
X01350000Y00750000D03*
X01175000Y00775000D03*
X01175000Y00875000D03*
X00900000Y00725000D03*
X00950000Y00675000D03*
X01100000Y00650000D03*
X01125000Y00625000D03*
X01225000Y00575000D03*
X01300000Y00575000D03*
X01525000Y00500000D03*
X01600000Y00500000D03*
X01825000Y00500000D03*
X01850000Y00475000D03*
X01925000Y00525000D03*
X01900000Y00575000D03*
X01825000Y00400000D03*
D19*
X00725000Y00700000D03*
X00725000Y00900000D03*
X02650000Y01150000D03*
D20*
X02400000Y01275000D03*
X02350000Y00925000D03*
M02*
