G75*
%MOIN*%
%OFA0B0*%
%FSLAX26Y26*%
%IPPOS*%
%LPD*%
%AMOC8*
5,1,8,0,0,1.08239X$1,22.5*
%
%ADD10R,0.062992X0.011811*%
%ADD11R,0.039370X0.043307*%
%ADD12R,0.043307X0.039370*%
%ADD13R,0.137795X0.039370*%
%ADD14R,0.133858X0.059055*%
%ADD15R,0.039370X0.137795*%
%ADD16R,0.059055X0.133858*%
%ADD17R,0.043307X0.049213*%
%ADD18C,0.012000*%
%ADD19C,0.027811*%
%ADD20C,0.010000*%
%ADD21C,0.032000*%
%ADD22C,0.050000*%
%ADD23R,0.053150X0.053150*%
%ADD24R,0.043559X0.043559*%
%ADD25C,0.024000*%
D10*
X00987697Y00930780D03*
X00987697Y00956370D03*
X00987697Y00981961D03*
X00987697Y01007551D03*
X00987697Y01033142D03*
X00987697Y01058732D03*
X00987697Y01084323D03*
X00987697Y01109913D03*
X00987697Y01135504D03*
X00987697Y01161094D03*
X01208169Y01161094D03*
X01208169Y01135504D03*
X01208169Y01109913D03*
X01208169Y01084323D03*
X01208169Y01058732D03*
X01208169Y01033142D03*
X01208169Y01007551D03*
X01208169Y00981961D03*
X01208169Y00956370D03*
X01208169Y00930780D03*
X02041831Y00938906D03*
X02041831Y00964496D03*
X02041831Y00990087D03*
X02041831Y01015677D03*
X02041831Y01041268D03*
X02041831Y01066858D03*
X02041831Y01092449D03*
X02041831Y01118039D03*
X02041831Y01143630D03*
X02041831Y01169220D03*
X02262303Y01169220D03*
X02262303Y01143630D03*
X02262303Y01118039D03*
X02262303Y01092449D03*
X02262303Y01066858D03*
X02262303Y01041268D03*
X02262303Y01015677D03*
X02262303Y00990087D03*
X02262303Y00964496D03*
X02262303Y00938906D03*
D11*
X02425000Y01016535D03*
X02425000Y01083465D03*
X00875000Y01116535D03*
X00875000Y01183465D03*
X00800000Y01208465D03*
X00800000Y01141535D03*
D12*
X00816535Y00950000D03*
X00883465Y00950000D03*
X02266535Y01250000D03*
X02333465Y01250000D03*
X02491535Y01125000D03*
X02558465Y01125000D03*
D13*
G36*
X02843206Y00906802D02*
X02740485Y00998645D01*
X02766726Y01027994D01*
X02869447Y00936151D01*
X02843206Y00906802D01*
G37*
G36*
X02790723Y00848103D02*
X02688002Y00939946D01*
X02714243Y00969295D01*
X02816964Y00877452D01*
X02790723Y00848103D01*
G37*
G36*
X02738240Y00789404D02*
X02635519Y00881247D01*
X02661760Y00910596D01*
X02764481Y00818753D01*
X02738240Y00789404D01*
G37*
G36*
X02685757Y00730705D02*
X02583036Y00822548D01*
X02609277Y00851897D01*
X02711998Y00760054D01*
X02685757Y00730705D01*
G37*
G36*
X02633274Y00672006D02*
X02530553Y00763849D01*
X02556794Y00793198D01*
X02659515Y00701355D01*
X02633274Y00672006D01*
G37*
D14*
G36*
X02726469Y00451369D02*
X02626682Y00540589D01*
X02666043Y00584613D01*
X02765830Y00495393D01*
X02726469Y00451369D01*
G37*
G36*
X03059736Y00824107D02*
X02959949Y00913327D01*
X02999310Y00957351D01*
X03099097Y00868131D01*
X03059736Y00824107D01*
G37*
D15*
X02807480Y01500000D03*
X02728740Y01500000D03*
X02650000Y01500000D03*
X02571260Y01500000D03*
X02492520Y01500000D03*
X01407480Y01500000D03*
X01328740Y01500000D03*
X01250000Y01500000D03*
X01171260Y01500000D03*
X01092520Y01500000D03*
X00507480Y01100000D03*
X00428740Y01100000D03*
X00350000Y01100000D03*
X00271260Y01100000D03*
X00192520Y01100000D03*
X01553150Y00300000D03*
X01631890Y00300000D03*
X01710630Y00300000D03*
X01789370Y00300000D03*
X01868110Y00300000D03*
X01946850Y00300000D03*
D16*
X02039370Y00516535D03*
X01460630Y00516535D03*
X00600000Y01318504D03*
X00100000Y01318504D03*
X01000000Y01718504D03*
X01500000Y01718504D03*
X02400000Y01718504D03*
X02900000Y01718504D03*
D17*
X02058465Y01250000D03*
X01991535Y01250000D03*
X01991535Y00850000D03*
X02058465Y00850000D03*
X01383465Y00950000D03*
X01316535Y00950000D03*
X01316535Y01175000D03*
X01383465Y01175000D03*
D18*
X00861000Y00491939D02*
X00627480Y00491939D01*
X00641078Y00479941D02*
X00861000Y00479941D01*
X00861000Y00467942D02*
X00654677Y00467942D01*
X00668275Y00455944D02*
X00861000Y00455944D01*
X00861000Y00443945D02*
X00681873Y00443945D01*
X00693977Y00433265D02*
X00046000Y01005010D01*
X00046000Y01410693D01*
X00417944Y01410693D01*
X00252094Y01244843D01*
X00252094Y01205157D01*
X00263810Y01193441D01*
X00263810Y01193441D01*
X00274354Y01182898D01*
X00245776Y01182898D01*
X00237575Y01174697D01*
X00237575Y01025303D01*
X00241260Y01021618D01*
X00241260Y00951166D01*
X00222520Y00969907D01*
X00222520Y01021618D01*
X00226205Y01025303D01*
X00226205Y01174697D01*
X00218004Y01182898D01*
X00167036Y01182898D01*
X00158835Y01174697D01*
X00158835Y01025303D01*
X00162520Y01021618D01*
X00162520Y00951513D01*
X00167087Y00940487D01*
X00358006Y00749567D01*
X00369032Y00745000D01*
X00880536Y00745000D01*
X00876343Y00740807D01*
X00872094Y00730551D01*
X00872094Y00719449D01*
X00876343Y00709193D01*
X00884193Y00701343D01*
X00894449Y00697094D01*
X00899621Y00697094D01*
X00919621Y00677094D01*
X00922094Y00677094D01*
X00922094Y00669449D01*
X00926343Y00659193D01*
X00934193Y00651343D01*
X00944449Y00647094D01*
X00955551Y00647094D01*
X00965807Y00651343D01*
X00969464Y00655000D01*
X01072094Y00655000D01*
X01072094Y00644449D01*
X01076343Y00634193D01*
X01084193Y00626343D01*
X01094449Y00622094D01*
X01097094Y00622094D01*
X01097094Y00619449D01*
X01101343Y00609193D01*
X01109193Y00601343D01*
X01119449Y00597094D01*
X01130551Y00597094D01*
X01140807Y00601343D01*
X01144464Y00605000D01*
X01404555Y00605000D01*
X01394555Y00595000D01*
X01319464Y00595000D01*
X01315807Y00598657D01*
X01305551Y00602905D01*
X01294449Y00602905D01*
X01284193Y00598657D01*
X01276343Y00590807D01*
X01272094Y00580551D01*
X01272094Y00569449D01*
X01276343Y00559193D01*
X01284193Y00551343D01*
X01294449Y00547094D01*
X01305551Y00547094D01*
X01315807Y00551343D01*
X01319464Y00555000D01*
X01411123Y00555000D01*
X01417102Y00560979D01*
X01417102Y00443807D01*
X01425303Y00435606D01*
X01495956Y00435606D01*
X01504157Y00443807D01*
X01504157Y00481378D01*
X01509193Y00476343D01*
X01519449Y00472094D01*
X01530551Y00472094D01*
X01540807Y00476343D01*
X01544464Y00480000D01*
X01580536Y00480000D01*
X01584193Y00476343D01*
X01594449Y00472094D01*
X01605551Y00472094D01*
X01615807Y00476343D01*
X01623657Y00484193D01*
X01627905Y00494449D01*
X01627905Y00505551D01*
X01623657Y00515807D01*
X01615807Y00523657D01*
X01605551Y00527905D01*
X01594449Y00527905D01*
X01584193Y00523657D01*
X01580536Y00520000D01*
X01544464Y00520000D01*
X01540807Y00523657D01*
X01530551Y00527905D01*
X01519449Y00527905D01*
X01509193Y00523657D01*
X01504157Y00518621D01*
X01504157Y00560979D01*
X01509758Y00555379D01*
X01852095Y00555379D01*
X01824621Y00527905D01*
X01819449Y00527905D01*
X01809193Y00523657D01*
X01801343Y00515807D01*
X01797094Y00505551D01*
X01797094Y00494449D01*
X01801343Y00484193D01*
X01809193Y00476343D01*
X01819449Y00472094D01*
X01822094Y00472094D01*
X01822094Y00469449D01*
X01826343Y00459193D01*
X01834193Y00451343D01*
X01836548Y00450367D01*
X01810293Y00424113D01*
X01809193Y00423657D01*
X01801343Y00415807D01*
X01797094Y00405551D01*
X01797094Y00394449D01*
X01801343Y00384193D01*
X01802638Y00382898D01*
X01763886Y00382898D01*
X01755685Y00374697D01*
X01755685Y00225303D01*
X01759370Y00221618D01*
X01759370Y00179662D01*
X01763937Y00168636D01*
X01824567Y00108006D01*
X01833006Y00099567D01*
X01844032Y00095000D01*
X01874846Y00095000D01*
X01877908Y00091937D01*
X01892242Y00086000D01*
X02232758Y00086000D01*
X02247092Y00091937D01*
X02372092Y00216937D01*
X02383063Y00227908D01*
X02389000Y00242242D01*
X02389000Y00308846D01*
X02613632Y00533477D01*
X02705989Y00450900D01*
X02683105Y00425324D01*
X02677539Y00419758D01*
X02677033Y00418538D01*
X02676153Y00417554D01*
X02673548Y00410124D01*
X02670535Y00402851D01*
X02670535Y00401531D01*
X02670099Y00400285D01*
X02670535Y00392423D01*
X02670535Y00046000D01*
X00715291Y00046000D01*
X00715291Y00386034D01*
X00715772Y00387438D01*
X00715291Y00395137D01*
X00715291Y00402851D01*
X00714723Y00404221D01*
X00714631Y00405702D01*
X00711240Y00412631D01*
X00708288Y00419758D01*
X00707239Y00420807D01*
X00706587Y00422139D01*
X00700803Y00427243D01*
X00695348Y00432698D01*
X00693977Y00433265D01*
X00696099Y00431947D02*
X00861000Y00431947D01*
X00861000Y00419948D02*
X00708097Y00419948D01*
X00713531Y00407950D02*
X00861000Y00407950D01*
X00861000Y00395951D02*
X00715291Y00395951D01*
X00715291Y00383953D02*
X00861000Y00383953D01*
X00861000Y00371954D02*
X00715291Y00371954D01*
X00715291Y00359956D02*
X00861000Y00359956D01*
X00861000Y00347957D02*
X00715291Y00347957D01*
X00715291Y00335959D02*
X00861000Y00335959D01*
X00861000Y00323960D02*
X00715291Y00323960D01*
X00715291Y00311962D02*
X00861000Y00311962D01*
X00861000Y00299963D02*
X00715291Y00299963D01*
X00715291Y00287965D02*
X00861000Y00287965D01*
X00861000Y00275966D02*
X00715291Y00275966D01*
X00715291Y00263968D02*
X00861000Y00263968D01*
X00861000Y00251969D02*
X00715291Y00251969D01*
X00715291Y00239970D02*
X00861000Y00239970D01*
X00861000Y00227972D02*
X00715291Y00227972D01*
X00715291Y00215973D02*
X00861526Y00215973D01*
X00861000Y00217242D02*
X00866937Y00202908D01*
X00877908Y00191937D01*
X00977908Y00091937D01*
X00992242Y00086000D01*
X01657758Y00086000D01*
X01672092Y00091937D01*
X01683063Y00102908D01*
X01689000Y00117242D01*
X01689000Y00121573D01*
X01736063Y00168636D01*
X01740630Y00179662D01*
X01740630Y00221618D01*
X01744315Y00225303D01*
X01744315Y00374697D01*
X01736114Y00382898D01*
X01685146Y00382898D01*
X01676945Y00374697D01*
X01676945Y00225303D01*
X01680630Y00221618D01*
X01680630Y00198056D01*
X01661890Y00179316D01*
X01661890Y00221618D01*
X01665575Y00225303D01*
X01665575Y00374697D01*
X01657374Y00382898D01*
X01606406Y00382898D01*
X01598205Y00374697D01*
X01598205Y00225303D01*
X01601890Y00221618D01*
X01601890Y00169316D01*
X01596573Y00164000D01*
X01016154Y00164000D01*
X00939000Y00241154D01*
X00939000Y00532758D01*
X00933063Y00547092D01*
X00765575Y00714579D01*
X00765575Y00732374D01*
X00757374Y00740575D01*
X00692626Y00740575D01*
X00684425Y00732374D01*
X00684425Y00667626D01*
X00692626Y00659425D01*
X00710420Y00659425D01*
X00861000Y00508846D01*
X00861000Y00217242D01*
X00866495Y00203975D02*
X00715291Y00203975D01*
X00715291Y00191976D02*
X00877869Y00191976D01*
X00889868Y00179978D02*
X00715291Y00179978D01*
X00715291Y00167979D02*
X00901866Y00167979D01*
X00913865Y00155981D02*
X00715291Y00155981D01*
X00715291Y00143982D02*
X00925863Y00143982D01*
X00937862Y00131984D02*
X00715291Y00131984D01*
X00715291Y00119985D02*
X00949860Y00119985D01*
X00961859Y00107987D02*
X00715291Y00107987D01*
X00715291Y00095988D02*
X00973857Y00095988D01*
X01012175Y00167979D02*
X01600553Y00167979D01*
X01601890Y00179978D02*
X01000176Y00179978D01*
X00988178Y00191976D02*
X01601890Y00191976D01*
X01601890Y00203975D02*
X00976179Y00203975D01*
X00964181Y00215973D02*
X01528107Y00215973D01*
X01527289Y00216193D02*
X01531358Y00215102D01*
X01549307Y00215102D01*
X01549307Y00296157D01*
X01556992Y00296157D01*
X01556992Y00215102D01*
X01574941Y00215102D01*
X01579010Y00216193D01*
X01582659Y00218299D01*
X01585638Y00221278D01*
X01587744Y00224927D01*
X01588835Y00228996D01*
X01588835Y00296157D01*
X01556993Y00296157D01*
X01556993Y00303843D01*
X01588835Y00303843D01*
X01588835Y00371004D01*
X01587744Y00375073D01*
X01585638Y00378722D01*
X01582659Y00381701D01*
X01579010Y00383807D01*
X01574941Y00384898D01*
X01556992Y00384897D01*
X01556992Y00303843D01*
X01549307Y00303843D01*
X01549307Y00384898D01*
X01531358Y00384898D01*
X01527289Y00383807D01*
X01523640Y00381701D01*
X01520661Y00378722D01*
X01518555Y00375073D01*
X01517465Y00371004D01*
X01517465Y00303843D01*
X01549306Y00303843D01*
X01549306Y00296157D01*
X01517465Y00296157D01*
X01517465Y00228996D01*
X01518555Y00224927D01*
X01520661Y00221278D01*
X01523640Y00218299D01*
X01527289Y00216193D01*
X01517739Y00227972D02*
X00952182Y00227972D01*
X00940184Y00239970D02*
X01517465Y00239970D01*
X01517465Y00251969D02*
X00939000Y00251969D01*
X00939000Y00263968D02*
X01517465Y00263968D01*
X01517465Y00275966D02*
X00939000Y00275966D01*
X00939000Y00287965D02*
X01517465Y00287965D01*
X01517465Y00311962D02*
X00939000Y00311962D01*
X00939000Y00323960D02*
X01517465Y00323960D01*
X01517465Y00335959D02*
X00939000Y00335959D01*
X00939000Y00347957D02*
X01517465Y00347957D01*
X01517465Y00359956D02*
X00939000Y00359956D01*
X00939000Y00371954D02*
X01517719Y00371954D01*
X01527832Y00383953D02*
X00939000Y00383953D01*
X00939000Y00395951D02*
X01797094Y00395951D01*
X01798088Y00407950D02*
X00939000Y00407950D01*
X00939000Y00419948D02*
X01805484Y00419948D01*
X01818127Y00431947D02*
X00939000Y00431947D01*
X00939000Y00443945D02*
X01417102Y00443945D01*
X01417102Y00455944D02*
X00939000Y00455944D01*
X00939000Y00467942D02*
X01417102Y00467942D01*
X01417102Y00479941D02*
X00939000Y00479941D01*
X00939000Y00491939D02*
X01417102Y00491939D01*
X01417102Y00503938D02*
X00939000Y00503938D01*
X00939000Y00515937D02*
X01417102Y00515937D01*
X01417102Y00527935D02*
X00939000Y00527935D01*
X00936028Y00539934D02*
X01417102Y00539934D01*
X01417102Y00551932D02*
X01316396Y00551932D01*
X01300000Y00575000D02*
X01402839Y00575000D01*
X01425303Y00597465D01*
X01495956Y00597465D01*
X01518042Y00575379D01*
X01860914Y00575379D01*
X01888441Y00602906D01*
X02107630Y00602906D01*
X02163441Y00547094D01*
X02186559Y00547094D01*
X02189465Y00550000D01*
X02275000Y00550000D01*
X02255536Y00530000D02*
X02197749Y00530000D01*
X02194843Y00527094D01*
X02155157Y00527094D01*
X02099346Y00582906D01*
X02082898Y00582906D01*
X02082898Y00443807D01*
X02074697Y00435606D01*
X02004043Y00435606D01*
X01995843Y00443807D01*
X01995843Y00582906D01*
X01926930Y00582906D01*
X01927905Y00580551D01*
X01927905Y00569449D01*
X01923657Y00559193D01*
X01915899Y00551435D01*
X01919449Y00552905D01*
X01930551Y00552905D01*
X01940807Y00548657D01*
X01948657Y00540807D01*
X01952905Y00530551D01*
X01952905Y00519449D01*
X01948657Y00509193D01*
X01940807Y00501343D01*
X01930551Y00497094D01*
X01925379Y00497094D01*
X01897905Y00469621D01*
X01897905Y00455157D01*
X01851556Y00408808D01*
X01852905Y00405551D01*
X01852905Y00394449D01*
X01848657Y00384193D01*
X01847362Y00382898D01*
X01893594Y00382898D01*
X01901795Y00374697D01*
X01901795Y00225303D01*
X01898110Y00221618D01*
X01898110Y00169316D01*
X01903426Y00164000D01*
X02208846Y00164000D01*
X02311000Y00266154D01*
X02311000Y00317242D01*
X02311000Y00332758D01*
X02316937Y00347092D01*
X02627888Y00658042D01*
X02575368Y00705000D01*
X02348284Y00705000D01*
X02358284Y00695000D01*
X02380536Y00695000D01*
X02384193Y00698657D01*
X02394449Y00702905D01*
X02405551Y00702905D01*
X02415807Y00698657D01*
X02423657Y00690807D01*
X02427905Y00680551D01*
X02427905Y00669449D01*
X02426930Y00667094D01*
X02448070Y00667094D01*
X02447094Y00669449D01*
X02447094Y00680551D01*
X02451343Y00690807D01*
X02459193Y00698657D01*
X02469449Y00702905D01*
X02480551Y00702905D01*
X02490807Y00698657D01*
X02498657Y00690807D01*
X02502905Y00680551D01*
X02502905Y00670000D01*
X02505536Y00670000D01*
X02509193Y00673657D01*
X02519449Y00677905D01*
X02530551Y00677905D01*
X02540807Y00673657D01*
X02548657Y00665807D01*
X02552905Y00655551D01*
X02552905Y00644449D01*
X02548657Y00634193D01*
X02540807Y00626343D01*
X02530551Y00622094D01*
X02519449Y00622094D01*
X02509193Y00626343D01*
X02505536Y00630000D01*
X02497749Y00630000D01*
X02494843Y00627094D01*
X02476189Y00627094D01*
X02500379Y00602905D01*
X02505551Y00602905D01*
X02515807Y00598657D01*
X02523657Y00590807D01*
X02527905Y00580551D01*
X02527905Y00569449D01*
X02523657Y00559193D01*
X02515807Y00551343D01*
X02505551Y00547094D01*
X02494449Y00547094D01*
X02484193Y00551343D01*
X02476343Y00559193D01*
X02472094Y00569449D01*
X02472094Y00574621D01*
X02441716Y00605000D01*
X02194464Y00605000D01*
X02190807Y00601343D01*
X02187565Y00600000D01*
X02190807Y00598657D01*
X02194464Y00595000D01*
X02405536Y00595000D01*
X02409193Y00598657D01*
X02419449Y00602905D01*
X02430551Y00602905D01*
X02440807Y00598657D01*
X02448657Y00590807D01*
X02452905Y00580551D01*
X02452905Y00569449D01*
X02448657Y00559193D01*
X02440807Y00551343D01*
X02430551Y00547094D01*
X02419449Y00547094D01*
X02409193Y00551343D01*
X02405536Y00555000D01*
X02302905Y00555000D01*
X02302905Y00544449D01*
X02298657Y00534193D01*
X02290807Y00526343D01*
X02280551Y00522094D01*
X02269449Y00522094D01*
X02259193Y00526343D01*
X02255536Y00530000D01*
X02257601Y00527935D02*
X02195684Y00527935D01*
X02154316Y00527935D02*
X02082898Y00527935D01*
X02082898Y00515937D02*
X02485782Y00515937D01*
X02497781Y00527935D02*
X02292399Y00527935D01*
X02301035Y00539934D02*
X02509779Y00539934D01*
X02516396Y00551932D02*
X02521778Y00551932D01*
X02525619Y00563931D02*
X02533776Y00563931D01*
X02527905Y00575929D02*
X02545775Y00575929D01*
X02557773Y00587928D02*
X02524850Y00587928D01*
X02512743Y00599926D02*
X02569772Y00599926D01*
X02581770Y00611925D02*
X02491359Y00611925D01*
X02479361Y00623923D02*
X02515034Y00623923D01*
X02534966Y00623923D02*
X02593769Y00623923D01*
X02605767Y00635922D02*
X02549373Y00635922D01*
X02552905Y00647920D02*
X02617766Y00647920D01*
X02625789Y00659919D02*
X02551096Y00659919D01*
X02542547Y00671917D02*
X02612369Y00671917D01*
X02598949Y00683916D02*
X02501512Y00683916D01*
X02502905Y00671917D02*
X02507453Y00671917D01*
X02493550Y00695914D02*
X02585530Y00695914D01*
X02587432Y00725000D02*
X01525000Y00725000D01*
X01544464Y00745000D02*
X01540807Y00748657D01*
X01530551Y00752905D01*
X01519449Y00752905D01*
X01509193Y00748657D01*
X01501343Y00740807D01*
X01497094Y00730551D01*
X01497094Y00719449D01*
X01498070Y00717094D01*
X00936190Y00717094D01*
X00927905Y00725379D01*
X00927905Y00730551D01*
X00923657Y00740807D01*
X00919464Y00745000D01*
X01055967Y00745000D01*
X01066994Y00749567D01*
X01075433Y00758006D01*
X01150433Y00833006D01*
X01155000Y00844032D01*
X01155000Y00905967D01*
X01150433Y00916994D01*
X01145000Y00922426D01*
X01145000Y00961961D01*
X01160673Y00961961D01*
X01160673Y00956371D01*
X01208168Y00956371D01*
X01208168Y00956369D01*
X01160673Y00956369D01*
X01160673Y00948358D01*
X01161764Y00944289D01*
X01162757Y00942568D01*
X01162673Y00942484D01*
X01162673Y00919075D01*
X01170874Y00910874D01*
X01245464Y00910874D01*
X01246370Y00911780D01*
X01263649Y00911780D01*
X01274779Y00922909D01*
X01274779Y00922910D02*
X01280882Y00929012D01*
X01280882Y00919595D01*
X01286096Y00914380D01*
X01174621Y00802905D01*
X01169449Y00802905D01*
X01159193Y00798657D01*
X01151343Y00790807D01*
X01147094Y00780551D01*
X01147094Y00769449D01*
X01151343Y00759193D01*
X01159193Y00751343D01*
X01169449Y00747094D01*
X01180551Y00747094D01*
X01190807Y00751343D01*
X01198657Y00759193D01*
X01202905Y00769449D01*
X01202905Y00774621D01*
X01319678Y00891394D01*
X01419201Y00891394D01*
X01497142Y00969335D01*
X01501343Y00959193D01*
X01509193Y00951343D01*
X01519449Y00947094D01*
X01524621Y00947094D01*
X01672094Y00799621D01*
X01672094Y00794449D01*
X01676343Y00784193D01*
X01684193Y00776343D01*
X01694449Y00772094D01*
X01705551Y00772094D01*
X01715807Y00776343D01*
X01723657Y00784193D01*
X01727905Y00794449D01*
X01727905Y00804346D01*
X01730157Y00802094D01*
X01769843Y00802094D01*
X01786190Y00818441D01*
X01797905Y00830157D01*
X01797905Y00969621D01*
X01802094Y00973810D01*
X01802094Y00930157D01*
X01805000Y00927251D01*
X01805000Y00794464D01*
X01801343Y00790807D01*
X01797094Y00780551D01*
X01797094Y00769449D01*
X01801343Y00759193D01*
X01809193Y00751343D01*
X01819449Y00747094D01*
X01830551Y00747094D01*
X01840807Y00751343D01*
X01848657Y00759193D01*
X01852905Y00769449D01*
X01852905Y00780551D01*
X01848657Y00790807D01*
X01845000Y00794464D01*
X01845000Y00922094D01*
X01855551Y00922094D01*
X01865807Y00926343D01*
X01873657Y00934193D01*
X01877905Y00944449D01*
X01877905Y00955551D01*
X01873657Y00965807D01*
X01871374Y00968090D01*
X01898961Y00995677D01*
X01996335Y00995677D01*
X01996335Y00978382D01*
X01997425Y00977291D01*
X01996335Y00976201D01*
X01996335Y00952791D01*
X01997425Y00951701D01*
X01996335Y00950610D01*
X01996335Y00927201D01*
X02004536Y00919000D01*
X02030000Y00919000D01*
X02030000Y00891716D01*
X02033110Y00888606D01*
X02031012Y00888606D01*
X02026301Y00883895D01*
X02025992Y00884430D01*
X02023013Y00887409D01*
X02019365Y00889516D01*
X02015295Y00890606D01*
X01996362Y00890606D01*
X01996362Y00854828D01*
X01986708Y00854828D01*
X01986708Y00890606D01*
X01967775Y00890606D01*
X01963706Y00889516D01*
X01960058Y00887409D01*
X01957079Y00884430D01*
X01954972Y00880782D01*
X01953882Y00876713D01*
X01953882Y00854827D01*
X01986708Y00854827D01*
X01986708Y00845173D01*
X01953882Y00845173D01*
X01953882Y00823287D01*
X01954972Y00819218D01*
X01957079Y00815569D01*
X01960058Y00812591D01*
X01963706Y00810484D01*
X01967775Y00809394D01*
X01986708Y00809394D01*
X01986708Y00845172D01*
X01996362Y00845172D01*
X01996362Y00809394D01*
X02015295Y00809394D01*
X02019365Y00810484D01*
X02023013Y00812591D01*
X02025992Y00815569D01*
X02026301Y00816105D01*
X02031012Y00811394D01*
X02085917Y00811394D01*
X02094118Y00819595D01*
X02094118Y00880405D01*
X02085917Y00888606D01*
X02078464Y00888606D01*
X02078464Y00899820D01*
X02070000Y00908284D01*
X02070000Y00919000D01*
X02079126Y00919000D01*
X02087327Y00927201D01*
X02087327Y00944496D01*
X02102220Y00944496D01*
X02145000Y00901716D01*
X02145000Y00894032D01*
X02149567Y00883006D01*
X02174567Y00858006D01*
X02183006Y00849567D01*
X02194032Y00845000D01*
X02455967Y00845000D01*
X02466994Y00849567D01*
X02562426Y00945000D01*
X02666873Y00945000D01*
X02674055Y00938578D01*
X02674346Y00933375D01*
X02785715Y00833800D01*
X02797295Y00834447D01*
X02831267Y00872443D01*
X02830619Y00884022D01*
X02719250Y00983598D01*
X02714047Y00983307D01*
X02698950Y00996805D01*
X02695322Y01000433D01*
X02694522Y01000764D01*
X02693876Y01001342D01*
X02689036Y01003037D01*
X02684296Y01005000D01*
X02683430Y01005000D01*
X02682612Y01005286D01*
X02677491Y01005000D01*
X02547426Y01005000D01*
X02562426Y01020000D01*
X02690917Y01020000D01*
X02726598Y00996213D01*
X02726829Y00992074D01*
X02838198Y00892499D01*
X02849778Y00893146D01*
X02883750Y00931141D01*
X02883102Y00942721D01*
X02799266Y01017680D01*
X02796606Y01021651D01*
X02789600Y01026322D01*
X02771733Y01042297D01*
X02766110Y01041982D01*
X02719113Y01073313D01*
X02716994Y01075433D01*
X02714195Y01076592D01*
X02711676Y01078272D01*
X02708736Y01078853D01*
X02705967Y01080000D01*
X02702939Y01080000D01*
X02699968Y01080588D01*
X02697029Y01080000D01*
X02544032Y01080000D01*
X02533006Y01075433D01*
X02524567Y01066994D01*
X02458685Y01001111D01*
X02458685Y01043988D01*
X02452673Y01050000D01*
X02458685Y01056012D01*
X02458685Y01096713D01*
X02464083Y01091315D01*
X02518988Y01091315D01*
X02523699Y01096026D01*
X02524008Y01095491D01*
X02526987Y01092512D01*
X02530635Y01090405D01*
X02534704Y01089315D01*
X02554622Y01089315D01*
X02554622Y01121157D01*
X02562307Y01121157D01*
X02562307Y01089315D01*
X02582225Y01089315D01*
X02586294Y01090405D01*
X02589942Y01092512D01*
X02592921Y01095491D01*
X02595028Y01099139D01*
X02596118Y01103208D01*
X02596118Y01121157D01*
X02562308Y01121157D01*
X02562308Y01128843D01*
X02596118Y01128843D01*
X02596118Y01146791D01*
X02595028Y01150861D01*
X02592921Y01154509D01*
X02589942Y01157488D01*
X02586294Y01159595D01*
X02582225Y01160685D01*
X02562307Y01160685D01*
X02562307Y01128843D01*
X02554622Y01128843D01*
X02554622Y01160685D01*
X02534704Y01160685D01*
X02530635Y01159595D01*
X02526987Y01157488D01*
X02524008Y01154509D01*
X02523699Y01153974D01*
X02518988Y01158685D01*
X02464083Y01158685D01*
X02455882Y01150484D01*
X02455882Y01145000D01*
X02379654Y01145000D01*
X02404654Y01170000D01*
X02477227Y01170000D01*
X02488253Y01174567D01*
X02496693Y01183006D01*
X02588253Y01274567D01*
X02596693Y01283006D01*
X02601260Y01294032D01*
X02601260Y01421618D01*
X02604945Y01425303D01*
X02604945Y01574697D01*
X02599641Y01580000D01*
X02621618Y01580000D01*
X02616315Y01574697D01*
X02616315Y01425303D01*
X02624516Y01417102D01*
X02675484Y01417102D01*
X02683685Y01425303D01*
X02683685Y01574697D01*
X02678381Y01580000D01*
X02700359Y01580000D01*
X02695055Y01574697D01*
X02695055Y01425303D01*
X02703256Y01417102D01*
X02708740Y01417102D01*
X02708740Y01412976D01*
X02766716Y01355000D01*
X02908284Y01355000D01*
X02920000Y01366716D01*
X02945000Y01391716D01*
X02945000Y01608284D01*
X02933284Y01620000D01*
X02915709Y01637575D01*
X02935327Y01637575D01*
X02943527Y01645776D01*
X02943527Y01791232D01*
X02935327Y01799433D01*
X02864673Y01799433D01*
X02856472Y01791232D01*
X02856472Y01645776D01*
X02857248Y01645000D01*
X02442751Y01645000D01*
X02443527Y01645776D01*
X02443527Y01791232D01*
X02435327Y01799433D01*
X02364673Y01799433D01*
X02356472Y01791232D01*
X02356472Y01645776D01*
X02357248Y01645000D01*
X02041716Y01645000D01*
X02030000Y01633284D01*
X01974621Y01577905D01*
X01969449Y01577905D01*
X01959193Y01573657D01*
X01951343Y01565807D01*
X01947094Y01555551D01*
X01947094Y01544449D01*
X01951343Y01534193D01*
X01959193Y01526343D01*
X01969449Y01522094D01*
X01980551Y01522094D01*
X01990807Y01526343D01*
X01998657Y01534193D01*
X02000000Y01537435D01*
X02001343Y01534193D01*
X02009193Y01526343D01*
X02019449Y01522094D01*
X02030551Y01522094D01*
X02040807Y01526343D01*
X02044464Y01530000D01*
X02141716Y01530000D01*
X02316716Y01355000D01*
X02330536Y01355000D01*
X02269464Y01355000D01*
X02273657Y01359193D01*
X02277905Y01369449D01*
X02277905Y01380551D01*
X02273657Y01390807D01*
X02265807Y01398657D01*
X02255551Y01402905D01*
X02244449Y01402905D01*
X02237546Y01400046D01*
X02240405Y01406949D01*
X02240405Y01418051D01*
X02236157Y01428307D01*
X02228307Y01436157D01*
X02218051Y01440405D01*
X02212879Y01440405D01*
X02133284Y01520000D01*
X01808284Y01520000D01*
X01758284Y01570000D01*
X01669464Y01570000D01*
X01665807Y01573657D01*
X01655551Y01577905D01*
X01644449Y01577905D01*
X01634193Y01573657D01*
X01626343Y01565807D01*
X01622094Y01555551D01*
X01622094Y01544449D01*
X01626343Y01534193D01*
X01634193Y01526343D01*
X01644449Y01522094D01*
X01655551Y01522094D01*
X01665807Y01526343D01*
X01669464Y01530000D01*
X01741716Y01530000D01*
X01791716Y01480000D01*
X02116716Y01480000D01*
X02184594Y01412121D01*
X02184594Y01406949D01*
X02188843Y01396693D01*
X02190536Y01395000D01*
X02008284Y01395000D01*
X01945000Y01458284D01*
X01933284Y01470000D01*
X01791716Y01470000D01*
X01716716Y01395000D01*
X01666716Y01395000D01*
X01555000Y01283284D01*
X01555000Y01219464D01*
X01551343Y01215807D01*
X01547094Y01205551D01*
X01547094Y01194449D01*
X01551343Y01184193D01*
X01559193Y01176343D01*
X01569449Y01172094D01*
X01580551Y01172094D01*
X01590807Y01176343D01*
X01598657Y01184193D01*
X01602905Y01194449D01*
X01602905Y01205551D01*
X01598657Y01215807D01*
X01595000Y01219464D01*
X01595000Y01266716D01*
X01683284Y01355000D01*
X01733284Y01355000D01*
X01808284Y01430000D01*
X01916716Y01430000D01*
X01976716Y01370000D01*
X01966716Y01370000D01*
X01955000Y01358284D01*
X01924621Y01327905D01*
X01919449Y01327905D01*
X01909193Y01323657D01*
X01907500Y01321964D01*
X01907500Y01372902D01*
X01915807Y01376343D01*
X01923657Y01384193D01*
X01927905Y01394449D01*
X01927905Y01405551D01*
X01923657Y01415807D01*
X01915807Y01423657D01*
X01905551Y01427905D01*
X01894449Y01427905D01*
X01884193Y01423657D01*
X01876343Y01415807D01*
X01872094Y01405551D01*
X01872094Y01400379D01*
X01867500Y01395784D01*
X01867500Y01195784D01*
X01845000Y01173284D01*
X01845000Y01380536D01*
X01848657Y01384193D01*
X01852905Y01394449D01*
X01852905Y01405551D01*
X01848657Y01415807D01*
X01840807Y01423657D01*
X01830551Y01427905D01*
X01819449Y01427905D01*
X01809193Y01423657D01*
X01801343Y01415807D01*
X01797094Y01405551D01*
X01797094Y01394449D01*
X01801343Y01384193D01*
X01805000Y01380536D01*
X01805000Y01183284D01*
X01802718Y01181002D01*
X01798657Y01190807D01*
X01790807Y01198657D01*
X01787565Y01200000D01*
X01790807Y01201343D01*
X01798657Y01209193D01*
X01802905Y01219449D01*
X01802905Y01230551D01*
X01798657Y01240807D01*
X01790807Y01248657D01*
X01780551Y01252905D01*
X01775379Y01252905D01*
X01727905Y01300379D01*
X01727905Y01305551D01*
X01723657Y01315807D01*
X01715807Y01323657D01*
X01705551Y01327905D01*
X01694449Y01327905D01*
X01684193Y01323657D01*
X01676343Y01315807D01*
X01672094Y01305551D01*
X01672094Y01294449D01*
X01676343Y01284193D01*
X01684193Y01276343D01*
X01694449Y01272094D01*
X01699621Y01272094D01*
X01747094Y01224621D01*
X01747094Y01219449D01*
X01751343Y01209193D01*
X01759193Y01201343D01*
X01762435Y01200000D01*
X01759193Y01198657D01*
X01751343Y01190807D01*
X01747094Y01180551D01*
X01747094Y01175379D01*
X01741716Y01170000D01*
X01544464Y01170000D01*
X01540807Y01173657D01*
X01530551Y01177905D01*
X01519449Y01177905D01*
X01509193Y01173657D01*
X01501343Y01165807D01*
X01497094Y01155551D01*
X01497094Y01144449D01*
X01501343Y01134193D01*
X01509193Y01126343D01*
X01519449Y01122094D01*
X01530551Y01122094D01*
X01534101Y01123565D01*
X01526343Y01115807D01*
X01522094Y01105551D01*
X01522094Y01102905D01*
X01519449Y01102905D01*
X01509193Y01098657D01*
X01501343Y01090807D01*
X01500000Y01087565D01*
X01498657Y01090807D01*
X01495000Y01094464D01*
X01495000Y01505536D01*
X01498657Y01509193D01*
X01502905Y01519449D01*
X01502905Y01530551D01*
X01498657Y01540807D01*
X01495000Y01544464D01*
X01495000Y01608284D01*
X01465709Y01637575D01*
X01535327Y01637575D01*
X01543527Y01645776D01*
X01543527Y01784394D01*
X01787322Y01784394D01*
X01805000Y01766716D01*
X01805000Y01569464D01*
X01801343Y01565807D01*
X01797094Y01555551D01*
X01797094Y01544449D01*
X01801343Y01534193D01*
X01809193Y01526343D01*
X01819449Y01522094D01*
X01830551Y01522094D01*
X01840807Y01526343D01*
X01848657Y01534193D01*
X01852905Y01544449D01*
X01852905Y01555551D01*
X01848657Y01565807D01*
X01845000Y01569464D01*
X01845000Y01783284D01*
X01823890Y01804394D01*
X03339827Y01804394D01*
X03339827Y01159307D01*
X03097434Y00888398D01*
X03004318Y00971653D01*
X02992738Y00971006D01*
X02964000Y00938864D01*
X02964000Y01032758D01*
X02958063Y01047092D01*
X02822092Y01183063D01*
X02807758Y01189000D01*
X02683949Y01189000D01*
X02682374Y01190575D01*
X02617626Y01190575D01*
X02609425Y01182374D01*
X02609425Y01117626D01*
X02617626Y01109425D01*
X02682374Y01109425D01*
X02683949Y01111000D01*
X02783846Y01111000D01*
X02886000Y01008846D01*
X02886000Y00916154D01*
X02726226Y00756381D01*
X02725654Y00766625D01*
X02614285Y00866200D01*
X02602705Y00865553D01*
X02584329Y00845000D01*
X02519464Y00845000D01*
X02515807Y00848657D01*
X02505551Y00852905D01*
X02494449Y00852905D01*
X02484193Y00848657D01*
X02476343Y00840807D01*
X02472094Y00830551D01*
X02472094Y00819449D01*
X02476343Y00809193D01*
X02484101Y00801435D01*
X02480551Y00802905D01*
X02475379Y00802905D01*
X02455379Y00822905D01*
X02266559Y00822905D01*
X02265807Y00823657D01*
X02255551Y00827905D01*
X02244449Y00827905D01*
X02234193Y00823657D01*
X02226343Y00815807D01*
X02222094Y00805551D01*
X02222094Y00794449D01*
X02226343Y00784193D01*
X02234193Y00776343D01*
X02244449Y00772094D01*
X02247094Y00772094D01*
X02247094Y00769449D01*
X02251343Y00759193D01*
X02259193Y00751343D01*
X02269449Y00747094D01*
X02280551Y00747094D01*
X02290807Y00751343D01*
X02294464Y00755000D01*
X02405536Y00755000D01*
X02409193Y00751343D01*
X02419449Y00747094D01*
X02430551Y00747094D01*
X02440807Y00751343D01*
X02448657Y00759193D01*
X02450000Y00762435D01*
X02451343Y00759193D01*
X02459193Y00751343D01*
X02469449Y00747094D01*
X02480551Y00747094D01*
X02490807Y00751343D01*
X02498657Y00759193D01*
X02502905Y00769449D01*
X02502905Y00780551D01*
X02498657Y00790807D01*
X02490899Y00798565D01*
X02494449Y00797094D01*
X02505551Y00797094D01*
X02515807Y00801343D01*
X02519464Y00805000D01*
X02548565Y00805000D01*
X02516250Y00768858D01*
X02516898Y00757278D01*
X02530631Y00745000D01*
X01544464Y00745000D01*
X01504444Y00743908D02*
X00920556Y00743908D01*
X00927342Y00731910D02*
X01497658Y00731910D01*
X01497094Y00719911D02*
X00933373Y00719911D01*
X00927906Y00697094D02*
X00900000Y00725000D01*
X00879444Y00743908D02*
X00341915Y00743908D01*
X00351666Y00755907D02*
X00328317Y00755907D01*
X00339668Y00767906D02*
X00314719Y00767906D01*
X00327669Y00779904D02*
X00301120Y00779904D01*
X00287522Y00791903D02*
X00315671Y00791903D01*
X00303672Y00803901D02*
X00273924Y00803901D01*
X00260325Y00815900D02*
X00291674Y00815900D01*
X00279675Y00827898D02*
X00246727Y00827898D01*
X00233129Y00839897D02*
X00267677Y00839897D01*
X00255678Y00851895D02*
X00219530Y00851895D01*
X00205932Y00863894D02*
X00243680Y00863894D01*
X00231681Y00875892D02*
X00192334Y00875892D01*
X00178735Y00887891D02*
X00219683Y00887891D01*
X00207684Y00899889D02*
X00165137Y00899889D01*
X00151539Y00911888D02*
X00195686Y00911888D01*
X00183687Y00923886D02*
X00137940Y00923886D01*
X00124342Y00935885D02*
X00171689Y00935885D01*
X00164023Y00947883D02*
X00110744Y00947883D01*
X00097145Y00959882D02*
X00162520Y00959882D01*
X00162520Y00971880D02*
X00083547Y00971880D01*
X00069949Y00983879D02*
X00162520Y00983879D01*
X00162520Y00995877D02*
X00056350Y00995877D01*
X00046000Y01007876D02*
X00162520Y01007876D01*
X00162520Y01019875D02*
X00046000Y01019875D01*
X00046000Y01031873D02*
X00158835Y01031873D01*
X00158835Y01043872D02*
X00046000Y01043872D01*
X00046000Y01055870D02*
X00158835Y01055870D01*
X00158835Y01067869D02*
X00046000Y01067869D01*
X00046000Y01079867D02*
X00158835Y01079867D01*
X00158835Y01091866D02*
X00046000Y01091866D01*
X00046000Y01103864D02*
X00158835Y01103864D01*
X00158835Y01115863D02*
X00046000Y01115863D01*
X00046000Y01127861D02*
X00158835Y01127861D01*
X00158835Y01139860D02*
X00046000Y01139860D01*
X00046000Y01151858D02*
X00158835Y01151858D01*
X00158835Y01163857D02*
X00046000Y01163857D01*
X00046000Y01175855D02*
X00159993Y01175855D01*
X00225046Y01175855D02*
X00238734Y01175855D01*
X00237575Y01163857D02*
X00226205Y01163857D01*
X00226205Y01151858D02*
X00237575Y01151858D01*
X00237575Y01139860D02*
X00226205Y01139860D01*
X00226205Y01127861D02*
X00237575Y01127861D01*
X00237575Y01115863D02*
X00226205Y01115863D01*
X00226205Y01103864D02*
X00237575Y01103864D01*
X00237575Y01091866D02*
X00226205Y01091866D01*
X00226205Y01079867D02*
X00237575Y01079867D01*
X00237575Y01067869D02*
X00226205Y01067869D01*
X00226205Y01055870D02*
X00237575Y01055870D01*
X00237575Y01043872D02*
X00226205Y01043872D01*
X00226205Y01031873D02*
X00237575Y01031873D01*
X00241260Y01019875D02*
X00222520Y01019875D01*
X00222520Y01007876D02*
X00241260Y01007876D01*
X00241260Y00995877D02*
X00222520Y00995877D01*
X00222520Y00983879D02*
X00241260Y00983879D01*
X00241260Y00971880D02*
X00222520Y00971880D01*
X00232544Y00959882D02*
X00241260Y00959882D01*
X00301260Y00966167D02*
X00301260Y01021618D01*
X00304945Y01025303D01*
X00304945Y01167129D01*
X00316315Y01167129D01*
X00316315Y01025303D01*
X00324516Y01017102D01*
X00330000Y01017102D01*
X00330000Y00966716D01*
X00380000Y00916716D01*
X00391716Y00905000D01*
X00483284Y00905000D01*
X00508284Y00930000D01*
X00520000Y00941716D01*
X00520000Y00955536D01*
X00523657Y00959193D01*
X00527905Y00969449D01*
X00527905Y00980551D01*
X00523657Y00990807D01*
X00515807Y00998657D01*
X00505551Y01002905D01*
X00494449Y01002905D01*
X00484193Y00998657D01*
X00476343Y00990807D01*
X00472094Y00980551D01*
X00472094Y00969449D01*
X00476343Y00959193D01*
X00478626Y00956910D01*
X00466716Y00945000D01*
X00408284Y00945000D01*
X00370000Y00983284D01*
X00370000Y01017102D01*
X00375484Y01017102D01*
X00383685Y01025303D01*
X00383685Y01167129D01*
X00395055Y01167129D01*
X00395055Y01025303D01*
X00403256Y01017102D01*
X00454224Y01017102D01*
X00462425Y01025303D01*
X00462425Y01174697D01*
X00454224Y01182898D01*
X00448740Y01182898D01*
X00448740Y01195413D01*
X00439153Y01205000D01*
X00683284Y01205000D01*
X00695000Y01216716D01*
X00708284Y01230000D01*
X00720000Y01241716D01*
X00720000Y01316716D01*
X00733284Y01330000D01*
X00780536Y01330000D01*
X00784193Y01326343D01*
X00794449Y01322094D01*
X00805551Y01322094D01*
X00815807Y01326343D01*
X00823657Y01334193D01*
X00827905Y01344449D01*
X00827905Y01355551D01*
X00823657Y01365807D01*
X00815807Y01373657D01*
X00805551Y01377905D01*
X00794449Y01377905D01*
X00784193Y01373657D01*
X00780536Y01370000D01*
X00716716Y01370000D01*
X00691716Y01345000D01*
X00680000Y01333284D01*
X00680000Y01258284D01*
X00666716Y01245000D01*
X00642751Y01245000D01*
X00643527Y01245776D01*
X00643527Y01379433D01*
X00683284Y01379433D01*
X00694544Y01390693D01*
X00696629Y01390693D01*
X00758284Y01452348D01*
X00770000Y01464063D01*
X00770000Y01641716D01*
X00912678Y01784394D01*
X00956472Y01784394D01*
X00956472Y01645776D01*
X00964673Y01637575D01*
X01034291Y01637575D01*
X00999621Y01602905D01*
X00994449Y01602905D01*
X00984193Y01598657D01*
X00976343Y01590807D01*
X00972094Y01580551D01*
X00972094Y01569449D01*
X00976343Y01559193D01*
X00984193Y01551343D01*
X00994449Y01547094D01*
X01005551Y01547094D01*
X01015807Y01551343D01*
X01023657Y01559193D01*
X01027905Y01569449D01*
X01027905Y01574621D01*
X01108284Y01655000D01*
X01180536Y01655000D01*
X01184193Y01651343D01*
X01194449Y01647094D01*
X01205551Y01647094D01*
X01215807Y01651343D01*
X01223657Y01659193D01*
X01227905Y01669449D01*
X01227905Y01680551D01*
X01223657Y01690807D01*
X01215807Y01698657D01*
X01205551Y01702905D01*
X01194449Y01702905D01*
X01184193Y01698657D01*
X01180536Y01695000D01*
X01091716Y01695000D01*
X01080000Y01683284D01*
X01043527Y01646812D01*
X01043527Y01784394D01*
X01456472Y01784394D01*
X01456472Y01646812D01*
X01445000Y01658284D01*
X01445000Y01683284D01*
X01433284Y01695000D01*
X01383284Y01745000D01*
X01316716Y01745000D01*
X01230000Y01658284D01*
X01230000Y01582898D01*
X01224516Y01582898D01*
X01216315Y01574697D01*
X01216315Y01425303D01*
X01224516Y01417102D01*
X01275484Y01417102D01*
X01283685Y01425303D01*
X01283685Y01574697D01*
X01275484Y01582898D01*
X01270000Y01582898D01*
X01270000Y01641716D01*
X01333284Y01705000D01*
X01366716Y01705000D01*
X01405000Y01666716D01*
X01405000Y01641716D01*
X01416716Y01630000D01*
X01455000Y01591716D01*
X01455000Y01544464D01*
X01451343Y01540807D01*
X01447094Y01530551D01*
X01447094Y01519449D01*
X01451343Y01509193D01*
X01455000Y01505536D01*
X01455000Y01094464D01*
X01451343Y01090807D01*
X01447094Y01080551D01*
X01447094Y01069449D01*
X01451343Y01059193D01*
X01459193Y01051343D01*
X01469449Y01047094D01*
X01480551Y01047094D01*
X01490807Y01051343D01*
X01498657Y01059193D01*
X01500000Y01062435D01*
X01501343Y01059193D01*
X01509193Y01051343D01*
X01519449Y01047094D01*
X01530551Y01047094D01*
X01540807Y01051343D01*
X01544464Y01055000D01*
X01776716Y01055000D01*
X01750000Y01028284D01*
X01745000Y01033284D01*
X01733284Y01045000D01*
X01366716Y01045000D01*
X01349267Y01027551D01*
X01253665Y01027551D01*
X01253665Y01038732D01*
X01267016Y01038732D01*
X01275379Y01047094D01*
X01280551Y01047094D01*
X01290807Y01051343D01*
X01298657Y01059193D01*
X01302905Y01069449D01*
X01302905Y01080551D01*
X01298657Y01090807D01*
X01290807Y01098657D01*
X01287565Y01100000D01*
X01290807Y01101343D01*
X01298657Y01109193D01*
X01302905Y01119449D01*
X01302905Y01130551D01*
X01300485Y01136394D01*
X01343988Y01136394D01*
X01348699Y01141105D01*
X01349008Y01140569D01*
X01351987Y01137591D01*
X01355635Y01135484D01*
X01359704Y01134394D01*
X01378638Y01134394D01*
X01378638Y01170172D01*
X01388291Y01170172D01*
X01388291Y01134394D01*
X01407225Y01134394D01*
X01411294Y01135484D01*
X01414942Y01137591D01*
X01417921Y01140569D01*
X01420028Y01144218D01*
X01421118Y01148287D01*
X01421118Y01170173D01*
X01388292Y01170173D01*
X01388292Y01179827D01*
X01421118Y01179827D01*
X01421118Y01201713D01*
X01420028Y01205782D01*
X01417921Y01209430D01*
X01414942Y01212409D01*
X01411294Y01214516D01*
X01407225Y01215606D01*
X01388291Y01215606D01*
X01388291Y01179828D01*
X01378638Y01179828D01*
X01378638Y01215606D01*
X01359704Y01215606D01*
X01355635Y01214516D01*
X01351987Y01212409D01*
X01349008Y01209430D01*
X01348699Y01208895D01*
X01343988Y01213606D01*
X01289083Y01213606D01*
X01280882Y01205405D01*
X01280882Y01194000D01*
X01267130Y01194000D01*
X01256000Y01182870D01*
X01253224Y01180094D01*
X01246370Y01180094D01*
X01245464Y01181000D01*
X01173426Y01181000D01*
X01175433Y01183006D01*
X01180000Y01194032D01*
X01180000Y01287573D01*
X01196693Y01304266D01*
X01201260Y01315292D01*
X01201260Y01421618D01*
X01204945Y01425303D01*
X01204945Y01574697D01*
X01196744Y01582898D01*
X01145776Y01582898D01*
X01137575Y01574697D01*
X01137575Y01425303D01*
X01141260Y01421618D01*
X01141260Y01333686D01*
X01133006Y01325433D01*
X01124567Y01316994D01*
X01122520Y01312050D01*
X01122520Y01421618D01*
X01126205Y01425303D01*
X01126205Y01574697D01*
X01118004Y01582898D01*
X01067036Y01582898D01*
X01058835Y01574697D01*
X01058835Y01425303D01*
X01062520Y01421618D01*
X01062520Y01329946D01*
X01058006Y01325433D01*
X01049567Y01316994D01*
X01045000Y01305967D01*
X01045000Y01194032D01*
X01049567Y01183006D01*
X01052852Y01179722D01*
X01033193Y01160063D01*
X01033193Y01172799D01*
X01024992Y01181000D01*
X01007697Y01181000D01*
X01007697Y01183230D01*
X01009738Y01185272D01*
X01013697Y01194828D01*
X01013697Y01267475D01*
X01009738Y01277031D01*
X00964728Y01322042D01*
X00955172Y01326000D01*
X00819828Y01326000D01*
X00810272Y01322042D01*
X00802958Y01314728D01*
X00777958Y01289728D01*
X00774000Y01280172D01*
X00774000Y01243602D01*
X00766315Y01235917D01*
X00766315Y01234464D01*
X00753293Y01234464D01*
X00743737Y01230506D01*
X00702958Y01189728D01*
X00699000Y01180172D01*
X00699000Y00940575D01*
X00692626Y00940575D01*
X00684425Y00932374D01*
X00684425Y00867626D01*
X00692626Y00859425D01*
X00728805Y00859425D01*
X00733231Y00855000D01*
X00412426Y00855000D01*
X00301260Y00966167D01*
X00301260Y00971880D02*
X00330000Y00971880D01*
X00330000Y00983879D02*
X00301260Y00983879D01*
X00301260Y00995877D02*
X00330000Y00995877D01*
X00330000Y01007876D02*
X00301260Y01007876D01*
X00301260Y01019875D02*
X00321744Y01019875D01*
X00316315Y01031873D02*
X00304945Y01031873D01*
X00304945Y01043872D02*
X00316315Y01043872D01*
X00316315Y01055870D02*
X00304945Y01055870D01*
X00304945Y01067869D02*
X00316315Y01067869D01*
X00316315Y01079867D02*
X00304945Y01079867D01*
X00304945Y01091866D02*
X00316315Y01091866D01*
X00316315Y01103864D02*
X00304945Y01103864D01*
X00304945Y01115863D02*
X00316315Y01115863D01*
X00316315Y01127861D02*
X00304945Y01127861D01*
X00304945Y01139860D02*
X00316315Y01139860D01*
X00316315Y01151858D02*
X00304945Y01151858D01*
X00304945Y01163857D02*
X00316315Y01163857D01*
X00298407Y01187129D02*
X00272094Y01213441D01*
X00272094Y01236559D01*
X00434969Y01399433D01*
X00675000Y01399433D01*
X00686260Y01410693D01*
X00688345Y01410693D01*
X00750000Y01472348D01*
X00750000Y01650000D01*
X00904394Y01804394D01*
X01795606Y01804394D01*
X01825000Y01775000D01*
X01825000Y01550000D01*
X01798858Y01559808D02*
X01768476Y01559808D01*
X01780475Y01547810D02*
X01797094Y01547810D01*
X01800672Y01535811D02*
X01792473Y01535811D01*
X01804472Y01523813D02*
X01815302Y01523813D01*
X01834698Y01523813D02*
X01965302Y01523813D01*
X01950672Y01535811D02*
X01849327Y01535811D01*
X01852905Y01547810D02*
X01947094Y01547810D01*
X01948858Y01559808D02*
X01851142Y01559808D01*
X01845000Y01571807D02*
X01957342Y01571807D01*
X01980521Y01583805D02*
X01845000Y01583805D01*
X01845000Y01595804D02*
X01992519Y01595804D01*
X02004518Y01607802D02*
X01845000Y01607802D01*
X01845000Y01619801D02*
X02016516Y01619801D01*
X02028515Y01631799D02*
X01845000Y01631799D01*
X01845000Y01643798D02*
X02040514Y01643798D01*
X02050000Y01625000D02*
X02900000Y01625000D01*
X02925000Y01600000D01*
X02925000Y01400000D01*
X02900000Y01375000D01*
X02775000Y01375000D01*
X02728740Y01421260D01*
X02728740Y01500000D01*
X02695055Y01499815D02*
X02683685Y01499815D01*
X02683685Y01487817D02*
X02695055Y01487817D01*
X02695055Y01475818D02*
X02683685Y01475818D01*
X02683685Y01463820D02*
X02695055Y01463820D01*
X02695055Y01451821D02*
X02683685Y01451821D01*
X02683685Y01439823D02*
X02695055Y01439823D01*
X02695055Y01427824D02*
X02683685Y01427824D01*
X02708740Y01415826D02*
X02601260Y01415826D01*
X02601260Y01403827D02*
X02717888Y01403827D01*
X02729887Y01391829D02*
X02601260Y01391829D01*
X02601260Y01379830D02*
X02741885Y01379830D01*
X02753884Y01367832D02*
X02601260Y01367832D01*
X02601260Y01355833D02*
X02765883Y01355833D01*
X02715807Y01248657D02*
X02705551Y01252905D01*
X02694449Y01252905D01*
X02684193Y01248657D01*
X02676343Y01240807D01*
X02672094Y01230551D01*
X02672094Y01219449D01*
X02676343Y01209193D01*
X02684193Y01201343D01*
X02694449Y01197094D01*
X02705551Y01197094D01*
X02715807Y01201343D01*
X02719464Y01205000D01*
X02816716Y01205000D01*
X02972094Y01049621D01*
X02972094Y01044449D01*
X02976343Y01034193D01*
X02984193Y01026343D01*
X02994449Y01022094D01*
X03005551Y01022094D01*
X03015807Y01026343D01*
X03023657Y01034193D01*
X03027905Y01044449D01*
X03027905Y01055551D01*
X03023657Y01065807D01*
X03015807Y01073657D01*
X03005551Y01077905D01*
X03000379Y01077905D01*
X02833284Y01245000D01*
X02719464Y01245000D01*
X02715807Y01248657D01*
X02716618Y01247846D02*
X03339827Y01247846D01*
X03339827Y01235848D02*
X02842436Y01235848D01*
X02854435Y01223849D02*
X03339827Y01223849D01*
X03339827Y01211851D02*
X02866433Y01211851D01*
X02878432Y01199852D02*
X03339827Y01199852D01*
X03339827Y01187854D02*
X02890430Y01187854D01*
X02902429Y01175855D02*
X03339827Y01175855D01*
X03339827Y01163857D02*
X02914427Y01163857D01*
X02926426Y01151858D02*
X03333162Y01151858D01*
X03322427Y01139860D02*
X02938424Y01139860D01*
X02950423Y01127861D02*
X03311691Y01127861D01*
X03300956Y01115863D02*
X02962421Y01115863D01*
X02974420Y01103864D02*
X03290220Y01103864D01*
X03279484Y01091866D02*
X02986418Y01091866D01*
X02998417Y01079867D02*
X03268749Y01079867D01*
X03258014Y01067869D02*
X03021595Y01067869D01*
X03027773Y01055870D02*
X03247278Y01055870D01*
X03236542Y01043872D02*
X03027666Y01043872D01*
X03021337Y01031873D02*
X03225807Y01031873D01*
X03215071Y01019875D02*
X02964000Y01019875D01*
X02964000Y01031873D02*
X02978663Y01031873D01*
X02972334Y01043872D02*
X02959396Y01043872D01*
X02965846Y01055870D02*
X02949284Y01055870D01*
X02953847Y01067869D02*
X02937286Y01067869D01*
X02941849Y01079867D02*
X02925287Y01079867D01*
X02929850Y01091866D02*
X02913289Y01091866D01*
X02917852Y01103864D02*
X02901290Y01103864D01*
X02905853Y01115863D02*
X02889291Y01115863D01*
X02893854Y01127861D02*
X02877293Y01127861D01*
X02881856Y01139860D02*
X02865294Y01139860D01*
X02869857Y01151858D02*
X02853296Y01151858D01*
X02857859Y01163857D02*
X02841297Y01163857D01*
X02845860Y01175855D02*
X02829299Y01175855D01*
X02833862Y01187854D02*
X02810524Y01187854D01*
X02821863Y01199852D02*
X02712209Y01199852D01*
X02687791Y01199852D02*
X02513539Y01199852D01*
X02525537Y01211851D02*
X02675242Y01211851D01*
X02672094Y01223849D02*
X02537536Y01223849D01*
X02549534Y01235848D02*
X02674289Y01235848D01*
X02683382Y01247846D02*
X02561533Y01247846D01*
X02573531Y01259845D02*
X03339827Y01259845D01*
X03339827Y01271844D02*
X02585530Y01271844D01*
X02597039Y01283842D02*
X03339827Y01283842D01*
X03339827Y01295841D02*
X02601260Y01295841D01*
X02601260Y01307839D02*
X03339827Y01307839D01*
X03339827Y01319838D02*
X02601260Y01319838D01*
X02601260Y01331836D02*
X03339827Y01331836D01*
X03339827Y01343835D02*
X02601260Y01343835D01*
X02604945Y01427824D02*
X02616315Y01427824D01*
X02616315Y01439823D02*
X02604945Y01439823D01*
X02604945Y01451821D02*
X02616315Y01451821D01*
X02616315Y01463820D02*
X02604945Y01463820D01*
X02604945Y01475818D02*
X02616315Y01475818D01*
X02616315Y01487817D02*
X02604945Y01487817D01*
X02604945Y01499815D02*
X02616315Y01499815D01*
X02616315Y01511814D02*
X02604945Y01511814D01*
X02604945Y01523813D02*
X02616315Y01523813D01*
X02616315Y01535811D02*
X02604945Y01535811D01*
X02604945Y01547810D02*
X02616315Y01547810D01*
X02616315Y01559808D02*
X02604945Y01559808D01*
X02604945Y01571807D02*
X02616315Y01571807D01*
X02683685Y01571807D02*
X02695055Y01571807D01*
X02695055Y01559808D02*
X02683685Y01559808D01*
X02683685Y01547810D02*
X02695055Y01547810D01*
X02695055Y01535811D02*
X02683685Y01535811D01*
X02683685Y01523813D02*
X02695055Y01523813D01*
X02695055Y01511814D02*
X02683685Y01511814D01*
X02807480Y01500000D02*
X02807480Y01567520D01*
X02775000Y01600000D01*
X02375000Y01600000D01*
X02300000Y01525000D01*
X02300000Y01450000D01*
X02320000Y01469464D02*
X02320000Y01516716D01*
X02383284Y01580000D01*
X02464138Y01580000D01*
X02458835Y01574697D01*
X02458835Y01425303D01*
X02462520Y01421618D01*
X02462520Y01404946D01*
X02412573Y01355000D01*
X02369464Y01355000D01*
X02373657Y01359193D01*
X02377905Y01369449D01*
X02377905Y01380551D01*
X02373657Y01390807D01*
X02365807Y01398657D01*
X02355551Y01402905D01*
X02344449Y01402905D01*
X02334193Y01398657D01*
X02331910Y01396374D01*
X02306002Y01422282D01*
X02315807Y01426343D01*
X02323657Y01434193D01*
X02327905Y01444449D01*
X02327905Y01455551D01*
X02323657Y01465807D01*
X02320000Y01469464D01*
X02320000Y01475818D02*
X02458835Y01475818D01*
X02458835Y01463820D02*
X02324480Y01463820D01*
X02327905Y01451821D02*
X02458835Y01451821D01*
X02458835Y01439823D02*
X02325989Y01439823D01*
X02317289Y01427824D02*
X02458835Y01427824D01*
X02462520Y01415826D02*
X02312458Y01415826D01*
X02324457Y01403827D02*
X02461401Y01403827D01*
X02449402Y01391829D02*
X02372635Y01391829D01*
X02377905Y01379830D02*
X02437404Y01379830D01*
X02425405Y01367832D02*
X02377235Y01367832D01*
X02370297Y01355833D02*
X02413407Y01355833D01*
X02350000Y01375000D02*
X02325000Y01375000D01*
X02150000Y01550000D01*
X02025000Y01550000D01*
X02044464Y01570000D02*
X02040807Y01573657D01*
X02031002Y01577718D01*
X02058284Y01605000D01*
X02351716Y01605000D01*
X02280000Y01533284D01*
X02280000Y01516716D01*
X02280000Y01469464D01*
X02276343Y01465807D01*
X02272282Y01456002D01*
X02158284Y01570000D01*
X02044464Y01570000D01*
X02042657Y01571807D02*
X02318523Y01571807D01*
X02330521Y01583805D02*
X02037089Y01583805D01*
X02049088Y01595804D02*
X02342520Y01595804D01*
X02375091Y01571807D02*
X02458835Y01571807D01*
X02458835Y01559808D02*
X02363092Y01559808D01*
X02351094Y01547810D02*
X02458835Y01547810D01*
X02458835Y01535811D02*
X02339095Y01535811D01*
X02327097Y01523813D02*
X02458835Y01523813D01*
X02458835Y01511814D02*
X02320000Y01511814D01*
X02320000Y01499815D02*
X02458835Y01499815D01*
X02458835Y01487817D02*
X02320000Y01487817D01*
X02280000Y01487817D02*
X02240467Y01487817D01*
X02228469Y01499815D02*
X02280000Y01499815D01*
X02280000Y01511814D02*
X02216470Y01511814D01*
X02204472Y01523813D02*
X02280000Y01523813D01*
X02282527Y01535811D02*
X02192473Y01535811D01*
X02180475Y01547810D02*
X02294525Y01547810D01*
X02306524Y01559808D02*
X02168476Y01559808D01*
X02147903Y01523813D02*
X02034698Y01523813D01*
X02015302Y01523813D02*
X01984698Y01523813D01*
X01999327Y01535811D02*
X02000673Y01535811D01*
X01975000Y01550000D02*
X02050000Y01625000D01*
X02141470Y01511814D02*
X02159902Y01511814D01*
X02153469Y01499815D02*
X02171900Y01499815D01*
X02165467Y01487817D02*
X02183899Y01487817D01*
X02177466Y01475818D02*
X02195897Y01475818D01*
X02189464Y01463820D02*
X02207896Y01463820D01*
X02201463Y01451821D02*
X02219894Y01451821D01*
X02219457Y01439823D02*
X02231893Y01439823D01*
X02236357Y01427824D02*
X02243891Y01427824D01*
X02240405Y01415826D02*
X02255890Y01415826D01*
X02267888Y01403827D02*
X02239112Y01403827D01*
X02212500Y01412500D02*
X02125000Y01500000D01*
X01800000Y01500000D01*
X01750000Y01550000D01*
X01650000Y01550000D01*
X01623858Y01559808D02*
X01495000Y01559808D01*
X01495000Y01547810D02*
X01622094Y01547810D01*
X01625672Y01535811D02*
X01500727Y01535811D01*
X01502905Y01523813D02*
X01640302Y01523813D01*
X01659698Y01523813D02*
X01747903Y01523813D01*
X01759902Y01511814D02*
X01499743Y01511814D01*
X01495000Y01499815D02*
X01771900Y01499815D01*
X01783899Y01487817D02*
X01495000Y01487817D01*
X01495000Y01475818D02*
X02120897Y01475818D01*
X02132896Y01463820D02*
X01939464Y01463820D01*
X01951463Y01451821D02*
X02144894Y01451821D01*
X02156893Y01439823D02*
X01963461Y01439823D01*
X01975460Y01427824D02*
X02168891Y01427824D01*
X02180890Y01415826D02*
X01987458Y01415826D01*
X01999457Y01403827D02*
X02185888Y01403827D01*
X02150000Y01350000D02*
X01975000Y01350000D01*
X01925000Y01300000D01*
X01952905Y01299621D02*
X01983284Y01330000D01*
X02130536Y01330000D01*
X02134193Y01326343D01*
X02144449Y01322094D01*
X02154668Y01322094D01*
X02124567Y01291994D01*
X02120000Y01280967D01*
X02120000Y01269032D01*
X02120000Y01194032D01*
X02124567Y01183006D01*
X02130000Y01177573D01*
X02130000Y01158284D01*
X02109755Y01138039D01*
X02089327Y01138039D01*
X02089327Y01143629D01*
X02041832Y01143629D01*
X02041832Y01143630D01*
X02089327Y01143630D01*
X02089327Y01151642D01*
X02088236Y01155711D01*
X02087243Y01157432D01*
X02087327Y01157516D01*
X02087327Y01180925D01*
X02079126Y01189126D01*
X02078464Y01189126D01*
X02078464Y01211394D01*
X02085917Y01211394D01*
X02094118Y01219595D01*
X02094118Y01280405D01*
X02085917Y01288606D01*
X02031012Y01288606D01*
X02026301Y01283895D01*
X02025992Y01284430D01*
X02023013Y01287409D01*
X02019365Y01289516D01*
X02015295Y01290606D01*
X01996362Y01290606D01*
X01996362Y01254828D01*
X01986708Y01254828D01*
X01986708Y01290606D01*
X01967775Y01290606D01*
X01963706Y01289516D01*
X01960058Y01287409D01*
X01957079Y01284430D01*
X01954972Y01280782D01*
X01953882Y01276713D01*
X01953882Y01254827D01*
X01986708Y01254827D01*
X01986708Y01245173D01*
X01953882Y01245173D01*
X01953882Y01223287D01*
X01954972Y01219218D01*
X01957079Y01215569D01*
X01960058Y01212591D01*
X01963706Y01210484D01*
X01967775Y01209394D01*
X01986708Y01209394D01*
X01986708Y01245172D01*
X01996362Y01245172D01*
X01996362Y01209394D01*
X02015295Y01209394D01*
X02019365Y01210484D01*
X02023013Y01212591D01*
X02025992Y01215569D01*
X02026301Y01216105D01*
X02031012Y01211394D01*
X02038465Y01211394D01*
X02038465Y01194139D01*
X02033452Y01189126D01*
X02004536Y01189126D01*
X01996335Y01180925D01*
X01996335Y01157516D01*
X01996419Y01157432D01*
X01995425Y01155711D01*
X01994335Y01151642D01*
X01994335Y01143630D01*
X02041829Y01143630D01*
X02041829Y01143629D01*
X01994335Y01143629D01*
X01994335Y01135618D01*
X01995425Y01131549D01*
X01996419Y01129828D01*
X01996335Y01129744D01*
X01996335Y01112449D01*
X01840733Y01112449D01*
X01895784Y01167500D01*
X01895784Y01167500D01*
X01907500Y01179216D01*
X01907500Y01278036D01*
X01909193Y01276343D01*
X01919449Y01272094D01*
X01930551Y01272094D01*
X01940807Y01276343D01*
X01948657Y01284193D01*
X01952905Y01294449D01*
X01952905Y01299621D01*
X01952905Y01295841D02*
X02128414Y01295841D01*
X02121191Y01283842D02*
X02090681Y01283842D01*
X02094118Y01271844D02*
X02120000Y01271844D01*
X02120000Y01259845D02*
X02094118Y01259845D01*
X02094118Y01247846D02*
X02120000Y01247846D01*
X02120000Y01235848D02*
X02094118Y01235848D01*
X02094118Y01223849D02*
X02120000Y01223849D01*
X02120000Y01211851D02*
X02086374Y01211851D01*
X02078464Y01199852D02*
X02120000Y01199852D01*
X02122559Y01187854D02*
X02080398Y01187854D01*
X02087327Y01175855D02*
X02130000Y01175855D01*
X02130000Y01163857D02*
X02087327Y01163857D01*
X02089269Y01151858D02*
X02123574Y01151858D01*
X02111576Y01139860D02*
X02089327Y01139860D01*
X02118039Y01118039D02*
X02041831Y01118039D01*
X02041831Y01092449D02*
X01842449Y01092449D01*
X01750000Y01000000D01*
X01725000Y01025000D01*
X01375000Y01025000D01*
X01357551Y01007551D01*
X01208169Y01007551D01*
X01208169Y00981961D02*
X01131961Y00981961D01*
X01125000Y00975000D01*
X01125000Y00900000D01*
X01155000Y00899889D02*
X01271605Y00899889D01*
X01263758Y00911888D02*
X01283604Y00911888D01*
X01280882Y00923886D02*
X01275756Y00923886D01*
X01274779Y00922910D02*
X01274779Y00922909D01*
X01259607Y00887891D02*
X01155000Y00887891D01*
X01155000Y00875892D02*
X01247608Y00875892D01*
X01235610Y00863894D02*
X01155000Y00863894D01*
X01155000Y00851895D02*
X01223611Y00851895D01*
X01211613Y00839897D02*
X01153287Y00839897D01*
X01145325Y00827898D02*
X01199614Y00827898D01*
X01187616Y00815900D02*
X01133326Y00815900D01*
X01121328Y00803901D02*
X01175617Y00803901D01*
X01152438Y00791903D02*
X01109329Y00791903D01*
X01097330Y00779904D02*
X01147094Y00779904D01*
X01147734Y00767906D02*
X01085332Y00767906D01*
X01073333Y00755907D02*
X01154629Y00755907D01*
X01175000Y00775000D02*
X01311394Y00911394D01*
X01410917Y00911394D01*
X01504523Y01005000D01*
X01555535Y01005000D01*
X01738441Y00822094D01*
X01761559Y00822094D01*
X01777906Y00838441D01*
X01777906Y00977906D01*
X01850000Y01050000D01*
X01882393Y01035677D02*
X01822094Y00975379D01*
X01822094Y00938441D01*
X01825000Y00935535D01*
X01825000Y00775000D01*
X01804629Y00755907D02*
X01195371Y00755907D01*
X01202266Y00767906D02*
X01797734Y00767906D01*
X01797094Y00779904D02*
X01719368Y00779904D01*
X01726851Y00791903D02*
X01802438Y00791903D01*
X01805000Y00803901D02*
X01771650Y00803901D01*
X01783648Y00815900D02*
X01805000Y00815900D01*
X01805000Y00827898D02*
X01795647Y00827898D01*
X01797905Y00839897D02*
X01805000Y00839897D01*
X01805000Y00851895D02*
X01797905Y00851895D01*
X01797905Y00863894D02*
X01805000Y00863894D01*
X01805000Y00875892D02*
X01797905Y00875892D01*
X01797905Y00887891D02*
X01805000Y00887891D01*
X01805000Y00899889D02*
X01797905Y00899889D01*
X01797905Y00911888D02*
X01805000Y00911888D01*
X01805000Y00923886D02*
X01797905Y00923886D01*
X01797905Y00935885D02*
X01802094Y00935885D01*
X01802094Y00947883D02*
X01797905Y00947883D01*
X01797905Y00959882D02*
X01802094Y00959882D01*
X01802094Y00971880D02*
X01800164Y00971880D01*
X01850000Y00975000D02*
X01850000Y00950000D01*
X01850000Y00975000D02*
X01890677Y01015677D01*
X02041831Y01015677D01*
X02036240Y01035677D02*
X01882393Y01035677D01*
X01887163Y00983879D02*
X01996335Y00983879D01*
X01996335Y00971880D02*
X01875164Y00971880D01*
X01876111Y00959882D02*
X01996335Y00959882D01*
X01996335Y00947883D02*
X01877905Y00947883D01*
X01874358Y00935885D02*
X01996335Y00935885D01*
X01999649Y00923886D02*
X01859876Y00923886D01*
X01845000Y00911888D02*
X02030000Y00911888D01*
X02030000Y00899889D02*
X01845000Y00899889D01*
X01845000Y00887891D02*
X01960891Y00887891D01*
X01953882Y00875892D02*
X01845000Y00875892D01*
X01845000Y00863894D02*
X01953882Y00863894D01*
X01953882Y00839897D02*
X01845000Y00839897D01*
X01845000Y00851895D02*
X01986708Y00851895D01*
X01986708Y00839897D02*
X01996362Y00839897D01*
X01996362Y00827898D02*
X01986708Y00827898D01*
X01986708Y00815900D02*
X01996362Y00815900D01*
X02026183Y00815900D02*
X02026506Y00815900D01*
X02058465Y00850000D02*
X02058465Y00891535D01*
X02050000Y00900000D01*
X02050000Y00930736D01*
X02041831Y00938906D01*
X02041831Y00964496D02*
X02110504Y00964496D01*
X02175000Y00900000D01*
X02145000Y00899889D02*
X02078395Y00899889D01*
X02086633Y00887891D02*
X02147544Y00887891D01*
X02156681Y00875892D02*
X02094118Y00875892D01*
X02094118Y00863894D02*
X02168680Y00863894D01*
X02180678Y00851895D02*
X02094118Y00851895D01*
X02094118Y00839897D02*
X02475966Y00839897D01*
X02472094Y00827898D02*
X02255568Y00827898D01*
X02244432Y00827898D02*
X02094118Y00827898D01*
X02090423Y00815900D02*
X02226435Y00815900D01*
X02222094Y00803901D02*
X01845000Y00803901D01*
X01845000Y00815900D02*
X01956888Y00815900D01*
X01953882Y00827898D02*
X01845000Y00827898D01*
X01847562Y00791903D02*
X02223149Y00791903D01*
X02230632Y00779904D02*
X01852905Y00779904D01*
X01852266Y00767906D02*
X02247734Y00767906D01*
X02254629Y00755907D02*
X01845371Y00755907D01*
X01827905Y00705000D02*
X02226716Y00705000D01*
X02216716Y00695000D01*
X02141716Y00695000D01*
X02130000Y00683284D01*
X02091716Y00645000D01*
X01819464Y00645000D01*
X01815807Y00648657D01*
X01805551Y00652905D01*
X01794449Y00652905D01*
X01792905Y00652266D01*
X01792905Y00653441D01*
X01798657Y00659193D01*
X01802718Y00668998D01*
X01816716Y00655000D01*
X01855536Y00655000D01*
X01859193Y00651343D01*
X01869449Y00647094D01*
X01880551Y00647094D01*
X01890807Y00651343D01*
X01898657Y00659193D01*
X01902905Y00669449D01*
X01902905Y00680551D01*
X01898657Y00690807D01*
X01890807Y00698657D01*
X01880551Y00702905D01*
X01869449Y00702905D01*
X01859193Y00698657D01*
X01855536Y00695000D01*
X01833284Y00695000D01*
X01827905Y00700379D01*
X01827905Y00705000D01*
X01832370Y00695914D02*
X01856450Y00695914D01*
X01875000Y00675000D02*
X01825000Y00675000D01*
X01800000Y00700000D01*
X01775000Y00675000D02*
X01772906Y00672906D01*
X01772906Y00630156D01*
X01744844Y00602094D01*
X01705156Y00602094D01*
X01682251Y00625000D01*
X01125000Y00625000D01*
X01137387Y00599926D02*
X01287257Y00599926D01*
X01275150Y00587928D02*
X00892227Y00587928D01*
X00904225Y00575929D02*
X01272094Y00575929D01*
X01274380Y00563931D02*
X00916224Y00563931D01*
X00928222Y00551932D02*
X01283604Y00551932D01*
X01312743Y00599926D02*
X01399481Y00599926D01*
X01504157Y00551932D02*
X01848648Y00551932D01*
X01836649Y00539934D02*
X01504157Y00539934D01*
X01504157Y00527935D02*
X01824651Y00527935D01*
X01801472Y00515937D02*
X01623528Y00515937D01*
X01627905Y00503938D02*
X01797094Y00503938D01*
X01798134Y00491939D02*
X01626866Y00491939D01*
X01619405Y00479941D02*
X01805595Y00479941D01*
X01822719Y00467942D02*
X01504157Y00467942D01*
X01504157Y00455944D02*
X01829592Y00455944D01*
X01830126Y00443945D02*
X01504157Y00443945D01*
X01504157Y00479941D02*
X01505595Y00479941D01*
X01525000Y00500000D02*
X01600000Y00500000D01*
X01580595Y00479941D02*
X01544405Y00479941D01*
X01549307Y00383953D02*
X01556992Y00383953D01*
X01556992Y00371954D02*
X01549307Y00371954D01*
X01549307Y00359956D02*
X01556992Y00359956D01*
X01556992Y00347957D02*
X01549307Y00347957D01*
X01549307Y00335959D02*
X01556992Y00335959D01*
X01556992Y00323960D02*
X01549307Y00323960D01*
X01549307Y00311962D02*
X01556992Y00311962D01*
X01556993Y00299963D02*
X01598205Y00299963D01*
X01598205Y00287965D02*
X01588835Y00287965D01*
X01588835Y00275966D02*
X01598205Y00275966D01*
X01598205Y00263968D02*
X01588835Y00263968D01*
X01588835Y00251969D02*
X01598205Y00251969D01*
X01598205Y00239970D02*
X01588835Y00239970D01*
X01588560Y00227972D02*
X01598205Y00227972D01*
X01601890Y00215973D02*
X01578192Y00215973D01*
X01556992Y00215973D02*
X01549307Y00215973D01*
X01549307Y00227972D02*
X01556992Y00227972D01*
X01556992Y00239970D02*
X01549307Y00239970D01*
X01549307Y00251969D02*
X01556992Y00251969D01*
X01556992Y00263968D02*
X01549307Y00263968D01*
X01549307Y00275966D02*
X01556992Y00275966D01*
X01556992Y00287965D02*
X01549307Y00287965D01*
X01549306Y00299963D02*
X00939000Y00299963D01*
X00861000Y00503938D02*
X00613882Y00503938D01*
X00600283Y00515937D02*
X00853909Y00515937D01*
X00841911Y00527935D02*
X00586685Y00527935D01*
X00573087Y00539934D02*
X00829912Y00539934D01*
X00817914Y00551932D02*
X00559488Y00551932D01*
X00545890Y00563931D02*
X00805915Y00563931D01*
X00793916Y00575929D02*
X00532292Y00575929D01*
X00518693Y00587928D02*
X00781918Y00587928D01*
X00769919Y00599926D02*
X00505095Y00599926D01*
X00491497Y00611925D02*
X00757921Y00611925D01*
X00745922Y00623923D02*
X00477898Y00623923D01*
X00464300Y00635922D02*
X00733924Y00635922D01*
X00721925Y00647920D02*
X00450702Y00647920D01*
X00437103Y00659919D02*
X00692133Y00659919D01*
X00684425Y00671917D02*
X00423505Y00671917D01*
X00409907Y00683916D02*
X00684425Y00683916D01*
X00684425Y00695914D02*
X00396308Y00695914D01*
X00382710Y00707913D02*
X00684425Y00707913D01*
X00684425Y00719911D02*
X00369112Y00719911D01*
X00355514Y00731910D02*
X00684425Y00731910D01*
X00765575Y00731910D02*
X00872658Y00731910D01*
X00872094Y00719911D02*
X00765575Y00719911D01*
X00772241Y00707913D02*
X00877623Y00707913D01*
X00900801Y00695914D02*
X00784240Y00695914D01*
X00796238Y00683916D02*
X00912800Y00683916D01*
X00922094Y00671917D02*
X00808237Y00671917D01*
X00820235Y00659919D02*
X00926042Y00659919D01*
X00942456Y00647920D02*
X00832234Y00647920D01*
X00844232Y00635922D02*
X01075627Y00635922D01*
X01072094Y00647920D02*
X00957544Y00647920D01*
X00950000Y00675000D02*
X01685535Y00675000D01*
X01688441Y00672094D01*
X01702906Y00672094D01*
X01725000Y00650000D01*
X01750000Y00664465D02*
X01752906Y00661559D01*
X01752906Y00638441D01*
X01736559Y00622094D01*
X01713441Y00622094D01*
X01685535Y00650000D01*
X01100000Y00650000D01*
X01090034Y00623923D02*
X00856231Y00623923D01*
X00868229Y00611925D02*
X01100211Y00611925D01*
X01112613Y00599926D02*
X00880228Y00599926D01*
X00927906Y00697094D02*
X01536559Y00697094D01*
X01539465Y00700000D01*
X01700000Y00700000D01*
X01750000Y00700000D02*
X01750000Y00664465D01*
X01798958Y00659919D02*
X01811797Y00659919D01*
X01816544Y00647920D02*
X01867456Y00647920D01*
X01882544Y00647920D02*
X02094636Y00647920D01*
X02106635Y00659919D02*
X01898958Y00659919D01*
X01902905Y00671917D02*
X02118633Y00671917D01*
X02130632Y00683916D02*
X01901512Y00683916D01*
X01893550Y00695914D02*
X02217630Y00695914D01*
X02225000Y00675000D02*
X02250000Y00700000D01*
X02325000Y00700000D01*
X02350000Y00675000D01*
X02400000Y00675000D01*
X02381450Y00695914D02*
X02357370Y00695914D01*
X02321716Y00675000D02*
X02349621Y00647094D01*
X02486559Y00647094D01*
X02489465Y00650000D01*
X02525000Y00650000D01*
X02450000Y00625000D02*
X02500000Y00575000D01*
X02474380Y00563931D02*
X02450619Y00563931D01*
X02452905Y00575929D02*
X02470787Y00575929D01*
X02458788Y00587928D02*
X02449850Y00587928D01*
X02446789Y00599926D02*
X02437743Y00599926D01*
X02412257Y00599926D02*
X02187743Y00599926D01*
X02175000Y00575000D02*
X02425000Y00575000D01*
X02441396Y00551932D02*
X02483604Y00551932D01*
X02473784Y00503938D02*
X02082898Y00503938D01*
X02082898Y00491939D02*
X02461785Y00491939D01*
X02449787Y00479941D02*
X02082898Y00479941D01*
X02082898Y00467942D02*
X02437788Y00467942D01*
X02425790Y00455944D02*
X02082898Y00455944D01*
X02082898Y00443945D02*
X02413791Y00443945D01*
X02401793Y00431947D02*
X01874695Y00431947D01*
X01862697Y00419948D02*
X02389794Y00419948D01*
X02377796Y00407950D02*
X01851912Y00407950D01*
X01852905Y00395951D02*
X02365797Y00395951D01*
X02353798Y00383953D02*
X01972168Y00383953D01*
X01972711Y00383807D02*
X01968642Y00384898D01*
X01950693Y00384897D01*
X01950693Y00303843D01*
X01943008Y00303843D01*
X01943008Y00384898D01*
X01925059Y00384898D01*
X01920990Y00383807D01*
X01917341Y00381701D01*
X01914362Y00378722D01*
X01912256Y00375073D01*
X01911165Y00371004D01*
X01911165Y00303843D01*
X01943007Y00303843D01*
X01943007Y00296157D01*
X01911165Y00296157D01*
X01911165Y00228996D01*
X01912256Y00224927D01*
X01914362Y00221278D01*
X01917341Y00218299D01*
X01920990Y00216193D01*
X01925059Y00215102D01*
X01943008Y00215102D01*
X01943008Y00296157D01*
X01950693Y00296157D01*
X01950693Y00215102D01*
X01968642Y00215102D01*
X01972711Y00216193D01*
X01976360Y00218299D01*
X01979338Y00221278D01*
X01981445Y00224927D01*
X01982535Y00228996D01*
X01982535Y00296157D01*
X01950694Y00296157D01*
X01950694Y00303843D01*
X01982535Y00303843D01*
X01982535Y00371004D01*
X01981445Y00375073D01*
X01979338Y00378722D01*
X01976360Y00381701D01*
X01972711Y00383807D01*
X01982281Y00371954D02*
X02341800Y00371954D01*
X02329801Y00359956D02*
X01982535Y00359956D01*
X01982535Y00347957D02*
X02317803Y00347957D01*
X02312326Y00335959D02*
X01982535Y00335959D01*
X01982535Y00323960D02*
X02311000Y00323960D01*
X02311000Y00311962D02*
X01982535Y00311962D01*
X01982535Y00287965D02*
X02311000Y00287965D01*
X02311000Y00299963D02*
X01950694Y00299963D01*
X01943007Y00299963D02*
X01901795Y00299963D01*
X01901795Y00287965D02*
X01911165Y00287965D01*
X01911165Y00275966D02*
X01901795Y00275966D01*
X01901795Y00263968D02*
X01911165Y00263968D01*
X01911165Y00251969D02*
X01901795Y00251969D01*
X01901795Y00239970D02*
X01911165Y00239970D01*
X01911440Y00227972D02*
X01901795Y00227972D01*
X01898110Y00215973D02*
X01921808Y00215973D01*
X01943008Y00215973D02*
X01950693Y00215973D01*
X01950693Y00227972D02*
X01943008Y00227972D01*
X01943008Y00239970D02*
X01950693Y00239970D01*
X01950693Y00251969D02*
X01943008Y00251969D01*
X01943008Y00263968D02*
X01950693Y00263968D01*
X01950693Y00275966D02*
X01943008Y00275966D01*
X01943008Y00287965D02*
X01950693Y00287965D01*
X01950693Y00311962D02*
X01943008Y00311962D01*
X01943008Y00323960D02*
X01950693Y00323960D01*
X01950693Y00335959D02*
X01943008Y00335959D01*
X01943008Y00347957D02*
X01950693Y00347957D01*
X01950693Y00359956D02*
X01943008Y00359956D01*
X01943008Y00371954D02*
X01950693Y00371954D01*
X01950693Y00383953D02*
X01943008Y00383953D01*
X01921533Y00383953D02*
X01848417Y00383953D01*
X01825000Y00400000D02*
X01825000Y00410535D01*
X01877906Y00463441D01*
X01877906Y00477906D01*
X01925000Y00525000D01*
X01951450Y00515937D02*
X01995843Y00515937D01*
X01995843Y00527935D02*
X01952905Y00527935D01*
X01949019Y00539934D02*
X01995843Y00539934D01*
X01995843Y00551932D02*
X01932900Y00551932D01*
X01925619Y00563931D02*
X01995843Y00563931D01*
X01995843Y00575929D02*
X01927905Y00575929D01*
X01917100Y00551932D02*
X01916396Y00551932D01*
X01900000Y00575000D02*
X01825000Y00500000D01*
X01897905Y00467942D02*
X01995843Y00467942D01*
X01995843Y00455944D02*
X01897905Y00455944D01*
X01886694Y00443945D02*
X01995843Y00443945D01*
X01995843Y00479941D02*
X01908225Y00479941D01*
X01920224Y00491939D02*
X01995843Y00491939D01*
X01995843Y00503938D02*
X01943402Y00503938D01*
X02082898Y00539934D02*
X02142318Y00539934D01*
X02130319Y00551932D02*
X02082898Y00551932D01*
X02082898Y00563931D02*
X02118320Y00563931D01*
X02106322Y00575929D02*
X02082898Y00575929D01*
X02100000Y00625000D02*
X02150000Y00675000D01*
X02225000Y00675000D01*
X02275000Y00675000D02*
X02321716Y00675000D01*
X02418550Y00695914D02*
X02456450Y00695914D01*
X02448488Y00683916D02*
X02426512Y00683916D01*
X02427905Y00671917D02*
X02447094Y00671917D01*
X02450000Y00625000D02*
X02175000Y00625000D01*
X02100000Y00625000D02*
X01800000Y00625000D01*
X01680632Y00779904D02*
X01208188Y00779904D01*
X01220187Y00791903D02*
X01673149Y00791903D01*
X01667815Y00803901D02*
X01232185Y00803901D01*
X01244184Y00815900D02*
X01655816Y00815900D01*
X01643818Y00827898D02*
X01256182Y00827898D01*
X01268181Y00839897D02*
X01631819Y00839897D01*
X01619820Y00851895D02*
X01280179Y00851895D01*
X01292178Y00863894D02*
X01607822Y00863894D01*
X01595823Y00875892D02*
X01304176Y00875892D01*
X01316175Y00887891D02*
X01583825Y00887891D01*
X01571826Y00899889D02*
X01427697Y00899889D01*
X01439695Y00911888D02*
X01559828Y00911888D01*
X01547829Y00923886D02*
X01451694Y00923886D01*
X01463692Y00935885D02*
X01535831Y00935885D01*
X01517545Y00947883D02*
X01475691Y00947883D01*
X01487689Y00959882D02*
X01501057Y00959882D01*
X01525000Y00975000D02*
X01700000Y00800000D01*
X01727905Y00803901D02*
X01728350Y00803901D01*
X01786190Y00818441D02*
X01786190Y00818441D01*
X01750000Y00850000D02*
X01750000Y01000000D01*
X01730000Y00991716D02*
X01716716Y01005000D01*
X01583819Y01005000D01*
X01725367Y00863452D01*
X01726343Y00865807D01*
X01730000Y00869464D01*
X01730000Y00991716D01*
X01725838Y00995877D02*
X01592942Y00995877D01*
X01604941Y00983879D02*
X01730000Y00983879D01*
X01730000Y00971880D02*
X01616939Y00971880D01*
X01628938Y00959882D02*
X01730000Y00959882D01*
X01730000Y00947883D02*
X01640936Y00947883D01*
X01652935Y00935885D02*
X01730000Y00935885D01*
X01730000Y00923886D02*
X01664933Y00923886D01*
X01676932Y00911888D02*
X01730000Y00911888D01*
X01730000Y00899889D02*
X01688930Y00899889D01*
X01700929Y00887891D02*
X01730000Y00887891D01*
X01730000Y00875892D02*
X01712927Y00875892D01*
X01724926Y00863894D02*
X01725550Y00863894D01*
X01746411Y01031873D02*
X01753589Y01031873D01*
X01765587Y01043872D02*
X01734413Y01043872D01*
X01775000Y01075000D02*
X01887500Y01187500D01*
X01887500Y01387500D01*
X01900000Y01400000D01*
X01919294Y01379830D02*
X01966885Y01379830D01*
X01964547Y01367832D02*
X01907500Y01367832D01*
X01907500Y01355833D02*
X01952549Y01355833D01*
X01940550Y01343835D02*
X01907500Y01343835D01*
X01907500Y01331836D02*
X01928552Y01331836D01*
X01961123Y01307839D02*
X02140413Y01307839D01*
X02152411Y01319838D02*
X01973122Y01319838D01*
X01986708Y01283842D02*
X01996362Y01283842D01*
X01996362Y01271844D02*
X01986708Y01271844D01*
X01986708Y01259845D02*
X01996362Y01259845D01*
X01986708Y01247846D02*
X01907500Y01247846D01*
X01907500Y01235848D02*
X01953882Y01235848D01*
X01953882Y01223849D02*
X01907500Y01223849D01*
X01907500Y01211851D02*
X01961339Y01211851D01*
X01986708Y01211851D02*
X01996362Y01211851D01*
X01996362Y01223849D02*
X01986708Y01223849D01*
X01986708Y01235848D02*
X01996362Y01235848D01*
X02021732Y01211851D02*
X02030555Y01211851D01*
X02038465Y01199852D02*
X01907500Y01199852D01*
X01907500Y01187854D02*
X02003264Y01187854D01*
X01996335Y01175855D02*
X01904140Y01175855D01*
X01892141Y01163857D02*
X01996335Y01163857D01*
X01994393Y01151858D02*
X01880142Y01151858D01*
X01868144Y01139860D02*
X01994335Y01139860D01*
X01996335Y01127861D02*
X01856145Y01127861D01*
X01844147Y01115863D02*
X01996335Y01115863D01*
X02041831Y01169220D02*
X02058465Y01185854D01*
X02058465Y01250000D01*
X02150000Y01200000D02*
X02150000Y01150000D01*
X02118039Y01118039D01*
X02132148Y01103864D02*
X02180000Y01103864D01*
X02180000Y01091866D02*
X02087327Y01091866D01*
X02087327Y01098039D02*
X02087327Y01080744D01*
X02086236Y01079653D01*
X02087327Y01078563D01*
X02087327Y01055154D01*
X02086236Y01054063D01*
X02087327Y01052972D01*
X02087327Y01029563D01*
X02086236Y01028472D01*
X02087327Y01027382D01*
X02087327Y01003973D01*
X02086236Y01002882D01*
X02087327Y01001791D01*
X02087327Y00984496D01*
X02118788Y00984496D01*
X02173284Y00930000D01*
X02180967Y00930000D01*
X02191994Y00925433D01*
X02212426Y00905000D01*
X02314220Y00905000D01*
X02314220Y00918906D01*
X02254019Y00918906D01*
X02253924Y00919000D01*
X02225008Y00919000D01*
X02216807Y00927201D01*
X02216807Y00950610D01*
X02217898Y00951701D01*
X02216807Y00952791D01*
X02216807Y00976201D01*
X02217898Y00977291D01*
X02216807Y00978382D01*
X02216807Y01001791D01*
X02217898Y01002882D01*
X02216807Y01003973D01*
X02216807Y01021268D01*
X02200448Y01021268D01*
X02191716Y01030000D01*
X02180000Y01041716D01*
X02180000Y01233284D01*
X02205000Y01258284D01*
X02216716Y01270000D01*
X02230882Y01270000D01*
X02230882Y01275484D01*
X02239083Y01283685D01*
X02293988Y01283685D01*
X02300000Y01277673D01*
X02306012Y01283685D01*
X02360917Y01283685D01*
X02364220Y01280381D01*
X02364220Y01295000D01*
X02212426Y01295000D01*
X02180000Y01262573D01*
X02180000Y01194032D01*
X02175433Y01183006D01*
X02170000Y01177573D01*
X02170000Y01141716D01*
X02158284Y01130000D01*
X02126324Y01098039D01*
X02087327Y01098039D01*
X02086450Y01079867D02*
X02180000Y01079867D01*
X02180000Y01067869D02*
X02087327Y01067869D01*
X02087327Y01055870D02*
X02180000Y01055870D01*
X02180000Y01043872D02*
X02087327Y01043872D01*
X02087327Y01031873D02*
X02189843Y01031873D01*
X02200000Y01050000D02*
X02200000Y01225000D01*
X02225000Y01250000D01*
X02266535Y01250000D01*
X02230882Y01271844D02*
X02189270Y01271844D01*
X02180000Y01259845D02*
X02206561Y01259845D01*
X02194562Y01247846D02*
X02180000Y01247846D01*
X02180000Y01235848D02*
X02182564Y01235848D01*
X02180000Y01223849D02*
X02180000Y01223849D01*
X02180000Y01211851D02*
X02180000Y01211851D01*
X02180000Y01199852D02*
X02180000Y01199852D01*
X02180000Y01187854D02*
X02177441Y01187854D01*
X02180000Y01175855D02*
X02170000Y01175855D01*
X02170000Y01163857D02*
X02180000Y01163857D01*
X02180000Y01151858D02*
X02170000Y01151858D01*
X02168144Y01139860D02*
X02180000Y01139860D01*
X02180000Y01127861D02*
X02156145Y01127861D01*
X02144147Y01115863D02*
X02180000Y01115863D01*
X02200000Y01050000D02*
X02208732Y01041268D01*
X02262303Y01041268D01*
X02262303Y01066858D02*
X02308142Y01066858D01*
X02325000Y01050000D01*
X02350000Y01075000D02*
X02332551Y01092449D01*
X02262303Y01092449D01*
X02262303Y01118039D02*
X02352694Y01118039D01*
X02359655Y01125000D01*
X02491535Y01125000D01*
X02463532Y01091866D02*
X02458685Y01091866D01*
X02458685Y01079867D02*
X02543712Y01079867D01*
X02554622Y01091866D02*
X02562307Y01091866D01*
X02562307Y01103864D02*
X02554622Y01103864D01*
X02554622Y01115863D02*
X02562307Y01115863D01*
X02562308Y01127861D02*
X02609425Y01127861D01*
X02609425Y01139860D02*
X02596118Y01139860D01*
X02594452Y01151858D02*
X02609425Y01151858D01*
X02609425Y01163857D02*
X02398511Y01163857D01*
X02386512Y01151858D02*
X02457256Y01151858D01*
X02489542Y01175855D02*
X02609425Y01175855D01*
X02614905Y01187854D02*
X02501540Y01187854D01*
X02554622Y01151858D02*
X02562307Y01151858D01*
X02562307Y01139860D02*
X02554622Y01139860D01*
X02596118Y01115863D02*
X02611189Y01115863D01*
X02596118Y01103864D02*
X02790981Y01103864D01*
X02802980Y01091866D02*
X02588823Y01091866D01*
X02528106Y01091866D02*
X02519539Y01091866D01*
X02525442Y01067869D02*
X02458685Y01067869D01*
X02458543Y01055870D02*
X02513444Y01055870D01*
X02501445Y01043872D02*
X02458685Y01043872D01*
X02458685Y01031873D02*
X02489447Y01031873D01*
X02477448Y01019875D02*
X02458685Y01019875D01*
X02458685Y01007876D02*
X02465450Y01007876D01*
X02475000Y00975000D02*
X02464496Y00964496D01*
X02262303Y00964496D01*
X02262303Y00938906D02*
X02336094Y00938906D01*
X02350000Y00925000D01*
X02314220Y00911888D02*
X02205539Y00911888D01*
X02193540Y00923886D02*
X02220122Y00923886D01*
X02216807Y00935885D02*
X02167399Y00935885D01*
X02155401Y00947883D02*
X02216807Y00947883D01*
X02216807Y00959882D02*
X02143402Y00959882D01*
X02131404Y00971880D02*
X02216807Y00971880D01*
X02216807Y00983879D02*
X02119405Y00983879D01*
X02087327Y00995877D02*
X02216807Y00995877D01*
X02216807Y01007876D02*
X02087327Y01007876D01*
X02087327Y01019875D02*
X02216807Y01019875D01*
X02262303Y01015677D02*
X02340677Y01015677D01*
X02375000Y01050000D01*
X02375000Y01083465D01*
X02425000Y01083465D01*
X02425000Y01016535D02*
X02369820Y01016535D01*
X02343371Y00990087D01*
X02262303Y00990087D01*
X02134828Y00911888D02*
X02070000Y00911888D01*
X02084012Y00923886D02*
X02122829Y00923886D01*
X02110831Y00935885D02*
X02087327Y00935885D01*
X02030297Y00887891D02*
X02022179Y00887891D01*
X01996362Y00887891D02*
X01986708Y00887891D01*
X01986708Y00875892D02*
X01996362Y00875892D01*
X01996362Y00863894D02*
X01986708Y00863894D01*
X02036240Y01035677D02*
X02041831Y01041268D01*
X01859570Y01187854D02*
X01845000Y01187854D01*
X01845000Y01199852D02*
X01867500Y01199852D01*
X01867500Y01211851D02*
X01845000Y01211851D01*
X01845000Y01223849D02*
X01867500Y01223849D01*
X01867500Y01235848D02*
X01845000Y01235848D01*
X01845000Y01247846D02*
X01867500Y01247846D01*
X01867500Y01259845D02*
X01845000Y01259845D01*
X01845000Y01271844D02*
X01867500Y01271844D01*
X01867500Y01283842D02*
X01845000Y01283842D01*
X01845000Y01295841D02*
X01867500Y01295841D01*
X01867500Y01307839D02*
X01845000Y01307839D01*
X01845000Y01319838D02*
X01867500Y01319838D01*
X01867500Y01331836D02*
X01845000Y01331836D01*
X01845000Y01343835D02*
X01867500Y01343835D01*
X01867500Y01355833D02*
X01845000Y01355833D01*
X01845000Y01367832D02*
X01867500Y01367832D01*
X01867500Y01379830D02*
X01845000Y01379830D01*
X01851820Y01391829D02*
X01867500Y01391829D01*
X01872094Y01403827D02*
X01852905Y01403827D01*
X01848638Y01415826D02*
X01876362Y01415826D01*
X01894254Y01427824D02*
X01830746Y01427824D01*
X01819254Y01427824D02*
X01806109Y01427824D01*
X01801362Y01415826D02*
X01794110Y01415826D01*
X01797094Y01403827D02*
X01782111Y01403827D01*
X01770113Y01391829D02*
X01798180Y01391829D01*
X01805000Y01379830D02*
X01758114Y01379830D01*
X01746116Y01367832D02*
X01805000Y01367832D01*
X01805000Y01355833D02*
X01734117Y01355833D01*
X01725000Y01375000D02*
X01800000Y01450000D01*
X01925000Y01450000D01*
X02000000Y01375000D01*
X02250000Y01375000D01*
X02270297Y01355833D02*
X02315883Y01355833D01*
X02330536Y01355000D02*
X02330536Y01355000D01*
X02303884Y01367832D02*
X02277235Y01367832D01*
X02277905Y01379830D02*
X02291885Y01379830D01*
X02279887Y01391829D02*
X02272635Y01391829D01*
X02275520Y01463820D02*
X02264464Y01463820D01*
X02252466Y01475818D02*
X02280000Y01475818D01*
X02356472Y01655796D02*
X01845000Y01655796D01*
X01845000Y01667795D02*
X02356472Y01667795D01*
X02356472Y01679793D02*
X01845000Y01679793D01*
X01845000Y01691792D02*
X02356472Y01691792D01*
X02356472Y01703790D02*
X01845000Y01703790D01*
X01845000Y01715789D02*
X02356472Y01715789D01*
X02356472Y01727787D02*
X01845000Y01727787D01*
X01845000Y01739786D02*
X02356472Y01739786D01*
X02356472Y01751784D02*
X01845000Y01751784D01*
X01845000Y01763783D02*
X02356472Y01763783D01*
X02356472Y01775781D02*
X01845000Y01775781D01*
X01840504Y01787780D02*
X02356472Y01787780D01*
X02443527Y01787780D02*
X02856472Y01787780D01*
X02856472Y01775781D02*
X02443527Y01775781D01*
X02443527Y01763783D02*
X02856472Y01763783D01*
X02856472Y01751784D02*
X02443527Y01751784D01*
X02443527Y01739786D02*
X02856472Y01739786D01*
X02856472Y01727787D02*
X02443527Y01727787D01*
X02443527Y01715789D02*
X02856472Y01715789D01*
X02856472Y01703790D02*
X02443527Y01703790D01*
X02443527Y01691792D02*
X02856472Y01691792D01*
X02856472Y01679793D02*
X02443527Y01679793D01*
X02443527Y01667795D02*
X02856472Y01667795D01*
X02856472Y01655796D02*
X02443527Y01655796D01*
X02909117Y01355833D02*
X03339827Y01355833D01*
X03339827Y01367832D02*
X02921116Y01367832D01*
X02933114Y01379830D02*
X03339827Y01379830D01*
X03339827Y01391829D02*
X02945000Y01391829D01*
X02945000Y01403827D02*
X03339827Y01403827D01*
X03339827Y01415826D02*
X02945000Y01415826D01*
X02945000Y01427824D02*
X03339827Y01427824D01*
X03339827Y01439823D02*
X02945000Y01439823D01*
X02945000Y01451821D02*
X03339827Y01451821D01*
X03339827Y01463820D02*
X02945000Y01463820D01*
X02945000Y01475818D02*
X03339827Y01475818D01*
X03339827Y01487817D02*
X02945000Y01487817D01*
X02945000Y01499815D02*
X03339827Y01499815D01*
X03339827Y01511814D02*
X02945000Y01511814D01*
X02945000Y01523813D02*
X03339827Y01523813D01*
X03339827Y01535811D02*
X02945000Y01535811D01*
X02945000Y01547810D02*
X03339827Y01547810D01*
X03339827Y01559808D02*
X02945000Y01559808D01*
X02945000Y01571807D02*
X03339827Y01571807D01*
X03339827Y01583805D02*
X02945000Y01583805D01*
X02945000Y01595804D02*
X03339827Y01595804D01*
X03339827Y01607802D02*
X02945000Y01607802D01*
X02933483Y01619801D02*
X03339827Y01619801D01*
X03339827Y01631799D02*
X02921485Y01631799D01*
X02941549Y01643798D02*
X03339827Y01643798D01*
X03339827Y01655796D02*
X02943527Y01655796D01*
X02943527Y01667795D02*
X03339827Y01667795D01*
X03339827Y01679793D02*
X02943527Y01679793D01*
X02943527Y01691792D02*
X03339827Y01691792D01*
X03339827Y01703790D02*
X02943527Y01703790D01*
X02943527Y01715789D02*
X03339827Y01715789D01*
X03339827Y01727787D02*
X02943527Y01727787D01*
X02943527Y01739786D02*
X03339827Y01739786D01*
X03339827Y01751784D02*
X02943527Y01751784D01*
X02943527Y01763783D02*
X03339827Y01763783D01*
X03339827Y01775781D02*
X02943527Y01775781D01*
X02943527Y01787780D02*
X03339827Y01787780D01*
X03339827Y01799779D02*
X01828506Y01799779D01*
X01795934Y01775781D02*
X01543527Y01775781D01*
X01543527Y01763783D02*
X01805000Y01763783D01*
X01805000Y01751784D02*
X01543527Y01751784D01*
X01543527Y01739786D02*
X01805000Y01739786D01*
X01805000Y01727787D02*
X01543527Y01727787D01*
X01543527Y01715789D02*
X01805000Y01715789D01*
X01805000Y01703790D02*
X01543527Y01703790D01*
X01543527Y01691792D02*
X01805000Y01691792D01*
X01805000Y01679793D02*
X01543527Y01679793D01*
X01543527Y01667795D02*
X01805000Y01667795D01*
X01805000Y01655796D02*
X01543527Y01655796D01*
X01541549Y01643798D02*
X01805000Y01643798D01*
X01805000Y01631799D02*
X01471485Y01631799D01*
X01483483Y01619801D02*
X01805000Y01619801D01*
X01805000Y01607802D02*
X01495000Y01607802D01*
X01495000Y01595804D02*
X01805000Y01595804D01*
X01805000Y01583805D02*
X01495000Y01583805D01*
X01495000Y01571807D02*
X01632342Y01571807D01*
X01667657Y01571807D02*
X01805000Y01571807D01*
X01785536Y01463820D02*
X01495000Y01463820D01*
X01495000Y01451821D02*
X01773537Y01451821D01*
X01761539Y01439823D02*
X01495000Y01439823D01*
X01495000Y01427824D02*
X01749540Y01427824D01*
X01737542Y01415826D02*
X01495000Y01415826D01*
X01495000Y01403827D02*
X01725543Y01403827D01*
X01725000Y01375000D02*
X01675000Y01375000D01*
X01575000Y01275000D01*
X01575000Y01200000D01*
X01602905Y01199852D02*
X01762079Y01199852D01*
X01750242Y01211851D02*
X01600296Y01211851D01*
X01595000Y01223849D02*
X01747094Y01223849D01*
X01735868Y01235848D02*
X01595000Y01235848D01*
X01595000Y01247846D02*
X01723869Y01247846D01*
X01711871Y01259845D02*
X01595000Y01259845D01*
X01600128Y01271844D02*
X01699872Y01271844D01*
X01676694Y01283842D02*
X01612126Y01283842D01*
X01624125Y01295841D02*
X01672094Y01295841D01*
X01673042Y01307839D02*
X01636123Y01307839D01*
X01648122Y01319838D02*
X01680373Y01319838D01*
X01660120Y01331836D02*
X01805000Y01331836D01*
X01805000Y01319838D02*
X01719626Y01319838D01*
X01726958Y01307839D02*
X01805000Y01307839D01*
X01805000Y01295841D02*
X01732444Y01295841D01*
X01744442Y01283842D02*
X01805000Y01283842D01*
X01805000Y01271844D02*
X01756441Y01271844D01*
X01768439Y01259845D02*
X01805000Y01259845D01*
X01805000Y01247846D02*
X01791618Y01247846D01*
X01800711Y01235848D02*
X01805000Y01235848D01*
X01805000Y01223849D02*
X01802905Y01223849D01*
X01805000Y01211851D02*
X01799758Y01211851D01*
X01805000Y01199852D02*
X01787921Y01199852D01*
X01799880Y01187854D02*
X01805000Y01187854D01*
X01825000Y01175000D02*
X01825000Y01400000D01*
X01805000Y01343835D02*
X01672119Y01343835D01*
X01639547Y01367832D02*
X01495000Y01367832D01*
X01495000Y01379830D02*
X01651546Y01379830D01*
X01663545Y01391829D02*
X01495000Y01391829D01*
X01495000Y01355833D02*
X01627549Y01355833D01*
X01615550Y01343835D02*
X01495000Y01343835D01*
X01495000Y01331836D02*
X01603552Y01331836D01*
X01591553Y01319838D02*
X01495000Y01319838D01*
X01495000Y01307839D02*
X01579555Y01307839D01*
X01567556Y01295841D02*
X01495000Y01295841D01*
X01495000Y01283842D02*
X01555558Y01283842D01*
X01555000Y01271844D02*
X01495000Y01271844D01*
X01495000Y01259845D02*
X01555000Y01259845D01*
X01555000Y01247846D02*
X01495000Y01247846D01*
X01495000Y01235848D02*
X01555000Y01235848D01*
X01555000Y01223849D02*
X01495000Y01223849D01*
X01495000Y01211851D02*
X01549704Y01211851D01*
X01547094Y01199852D02*
X01495000Y01199852D01*
X01495000Y01187854D02*
X01549826Y01187854D01*
X01560370Y01175855D02*
X01535500Y01175855D01*
X01514500Y01175855D02*
X01495000Y01175855D01*
X01495000Y01163857D02*
X01500535Y01163857D01*
X01497094Y01151858D02*
X01495000Y01151858D01*
X01495000Y01139860D02*
X01498995Y01139860D01*
X01495000Y01127861D02*
X01507674Y01127861D01*
X01495000Y01115863D02*
X01526398Y01115863D01*
X01522094Y01103864D02*
X01495000Y01103864D01*
X01497598Y01091866D02*
X01502401Y01091866D01*
X01525000Y01075000D02*
X01775000Y01075000D01*
X01750000Y01100000D02*
X01825000Y01175000D01*
X01845000Y01175855D02*
X01847571Y01175855D01*
X01775000Y01175000D02*
X01750000Y01150000D01*
X01525000Y01150000D01*
X01550000Y01100000D02*
X01750000Y01100000D01*
X01747094Y01175855D02*
X01589630Y01175855D01*
X01600173Y01187854D02*
X01750120Y01187854D01*
X01775000Y01225000D02*
X01700000Y01300000D01*
X01907500Y01271844D02*
X01953882Y01271844D01*
X01953882Y01259845D02*
X01907500Y01259845D01*
X01948306Y01283842D02*
X01956739Y01283842D01*
X01954887Y01391829D02*
X01926820Y01391829D01*
X01927905Y01403827D02*
X01942888Y01403827D01*
X01930890Y01415826D02*
X01923638Y01415826D01*
X01918891Y01427824D02*
X01905746Y01427824D01*
X02201268Y01283842D02*
X02364220Y01283842D01*
X02375000Y01250000D02*
X02400000Y01275000D01*
X02375000Y01250000D02*
X02333465Y01250000D01*
X02333465Y01183465D01*
X02319220Y01169220D01*
X02262303Y01169220D01*
X02262303Y01143630D02*
X02350000Y01143630D01*
X02400000Y01193630D01*
X02400000Y01200000D01*
X02562301Y01019875D02*
X02691105Y01019875D01*
X02709103Y01007876D02*
X02550302Y01007876D01*
X02553311Y00935885D02*
X02674206Y00935885D01*
X02666768Y00924899D02*
X02655188Y00924251D01*
X02621216Y00886256D01*
X02621863Y00874676D01*
X02733232Y00775101D01*
X02744812Y00775748D01*
X02778784Y00813744D01*
X02778136Y00825324D01*
X02666768Y00924899D01*
X02667900Y00923886D02*
X02684959Y00923886D01*
X02681320Y00911888D02*
X02698378Y00911888D01*
X02694739Y00899889D02*
X02711798Y00899889D01*
X02708159Y00887891D02*
X02725218Y00887891D01*
X02721579Y00875892D02*
X02738637Y00875892D01*
X02734998Y00863894D02*
X02752057Y00863894D01*
X02748418Y00851895D02*
X02765477Y00851895D01*
X02761837Y00839897D02*
X02778896Y00839897D01*
X02775257Y00827898D02*
X02797744Y00827898D01*
X02802167Y00839897D02*
X02809742Y00839897D01*
X02812895Y00851895D02*
X02821741Y00851895D01*
X02823623Y00863894D02*
X02833739Y00863894D01*
X02831074Y00875892D02*
X02845738Y00875892D01*
X02857736Y00887891D02*
X02826293Y00887891D01*
X02829932Y00899889D02*
X02812873Y00899889D01*
X02816512Y00911888D02*
X02799454Y00911888D01*
X02803093Y00923886D02*
X02786034Y00923886D01*
X02789673Y00935885D02*
X02772615Y00935885D01*
X02776254Y00947883D02*
X02759195Y00947883D01*
X02762834Y00959882D02*
X02745775Y00959882D01*
X02749414Y00971880D02*
X02732356Y00971880D01*
X02735995Y00983879D02*
X02713407Y00983879D01*
X02726617Y00995877D02*
X02699988Y00995877D01*
X02775000Y01000000D02*
X02804966Y00970034D01*
X02804966Y00967398D01*
X02823650Y00995877D02*
X02886000Y00995877D01*
X02886000Y00983879D02*
X02837070Y00983879D01*
X02850490Y00971880D02*
X02886000Y00971880D01*
X02886000Y00959882D02*
X02863909Y00959882D01*
X02877329Y00947883D02*
X02886000Y00947883D01*
X02886000Y00935885D02*
X02883485Y00935885D01*
X02886000Y00923886D02*
X02877263Y00923886D01*
X02881734Y00911888D02*
X02866535Y00911888D01*
X02869735Y00899889D02*
X02855807Y00899889D01*
X02950000Y00850000D02*
X02875000Y00775000D01*
X02925000Y00750000D02*
X02975000Y00800000D01*
X02975000Y00850000D02*
X02950000Y00850000D01*
X03044323Y00935885D02*
X03139923Y00935885D01*
X03150658Y00947883D02*
X03030903Y00947883D01*
X03017484Y00959882D02*
X03161394Y00959882D01*
X03172129Y00971880D02*
X02964000Y00971880D01*
X02964000Y00959882D02*
X02982792Y00959882D01*
X02972065Y00947883D02*
X02964000Y00947883D01*
X02964000Y00983879D02*
X03182865Y00983879D01*
X03193600Y00995877D02*
X02964000Y00995877D01*
X02964000Y01007876D02*
X03204336Y01007876D01*
X03129187Y00923886D02*
X03057742Y00923886D01*
X03071162Y00911888D02*
X03118452Y00911888D01*
X03107716Y00899889D02*
X03084582Y00899889D01*
X02886000Y01007876D02*
X02810231Y01007876D01*
X02797796Y01019875D02*
X02874971Y01019875D01*
X02862973Y01031873D02*
X02783392Y01031873D01*
X02763276Y01043872D02*
X02850974Y01043872D01*
X02838976Y01055870D02*
X02745278Y01055870D01*
X02727280Y01067869D02*
X02826977Y01067869D01*
X02814978Y01079867D02*
X02706288Y01079867D01*
X02700000Y01225000D02*
X02825000Y01225000D01*
X03000000Y01050000D01*
X02700000Y00850000D02*
X02675000Y00875000D01*
X02647343Y00851895D02*
X02630284Y00851895D01*
X02633923Y00863894D02*
X02616864Y00863894D01*
X02621795Y00875892D02*
X02493319Y00875892D01*
X02505317Y00887891D02*
X02622678Y00887891D01*
X02633405Y00899889D02*
X02517316Y00899889D01*
X02529314Y00911888D02*
X02644133Y00911888D01*
X02654861Y00923886D02*
X02541313Y00923886D01*
X02507990Y00851895D02*
X02590494Y00851895D01*
X02601222Y00863894D02*
X02481320Y00863894D01*
X02492010Y00851895D02*
X02469322Y00851895D01*
X02473565Y00815900D02*
X02462384Y00815900D01*
X02474383Y00803901D02*
X02481635Y00803901D01*
X02497562Y00791903D02*
X02536854Y00791903D01*
X02547582Y00803901D02*
X02518365Y00803901D01*
X02526126Y00779904D02*
X02502905Y00779904D01*
X02502266Y00767906D02*
X02516304Y00767906D01*
X02518432Y00755907D02*
X02495371Y00755907D01*
X02475000Y00775000D02*
X02447094Y00802906D01*
X02263441Y00802906D01*
X02260535Y00800000D01*
X02250000Y00800000D01*
X02275000Y00775000D02*
X02425000Y00775000D01*
X02445371Y00755907D02*
X02454629Y00755907D01*
X02500000Y00825000D02*
X02613818Y00825000D01*
X02647517Y00791301D01*
X02670543Y00815900D02*
X02687601Y00815900D01*
X02683962Y00803901D02*
X02701021Y00803901D01*
X02697382Y00791903D02*
X02714441Y00791903D01*
X02710802Y00779904D02*
X02727860Y00779904D01*
X02724221Y00767906D02*
X02737751Y00767906D01*
X02748528Y00779904D02*
X02749750Y00779904D01*
X02759256Y00791903D02*
X02761748Y00791903D01*
X02769984Y00803901D02*
X02773747Y00803901D01*
X02778664Y00815900D02*
X02785745Y00815900D01*
X02674182Y00827898D02*
X02657123Y00827898D01*
X02660762Y00839897D02*
X02643704Y00839897D01*
X02595034Y00732602D02*
X02587432Y00725000D01*
X02408604Y00551932D02*
X02302905Y00551932D01*
X02488104Y00407950D02*
X02672648Y00407950D01*
X02670339Y00395951D02*
X02476105Y00395951D01*
X02464107Y00383953D02*
X02670535Y00383953D01*
X02670535Y00371954D02*
X02452108Y00371954D01*
X02440110Y00359956D02*
X02670535Y00359956D01*
X02670535Y00347957D02*
X02428111Y00347957D01*
X02416113Y00335959D02*
X02670535Y00335959D01*
X02670535Y00323960D02*
X02404114Y00323960D01*
X02392116Y00311962D02*
X02670535Y00311962D01*
X02670535Y00299963D02*
X02389000Y00299963D01*
X02389000Y00287965D02*
X02670535Y00287965D01*
X02670535Y00275966D02*
X02389000Y00275966D01*
X02389000Y00263968D02*
X02670535Y00263968D01*
X02670535Y00251969D02*
X02389000Y00251969D01*
X02388059Y00239970D02*
X02670535Y00239970D01*
X02670535Y00227972D02*
X02383089Y00227972D01*
X02371128Y00215973D02*
X02670535Y00215973D01*
X02670535Y00203975D02*
X02359129Y00203975D01*
X02347131Y00191976D02*
X02670535Y00191976D01*
X02670535Y00179978D02*
X02335132Y00179978D01*
X02323134Y00167979D02*
X02670535Y00167979D01*
X02670535Y00155981D02*
X02311135Y00155981D01*
X02299137Y00143982D02*
X02670535Y00143982D01*
X02670535Y00131984D02*
X02287138Y00131984D01*
X02275140Y00119985D02*
X02670535Y00119985D01*
X02670535Y00107987D02*
X02263141Y00107987D01*
X02251142Y00095988D02*
X02670535Y00095988D01*
X02670535Y00083990D02*
X00715291Y00083990D01*
X00715291Y00071991D02*
X02670535Y00071991D01*
X02670535Y00059993D02*
X00715291Y00059993D01*
X00715291Y00047994D02*
X02670535Y00047994D01*
X02308813Y00263968D02*
X01982535Y00263968D01*
X01982535Y00275966D02*
X02311000Y00275966D01*
X02296815Y00251969D02*
X01982535Y00251969D01*
X01982535Y00239970D02*
X02284816Y00239970D01*
X02272818Y00227972D02*
X01982261Y00227972D01*
X01971893Y00215973D02*
X02260819Y00215973D01*
X02248821Y00203975D02*
X01898110Y00203975D01*
X01898110Y00191976D02*
X02236822Y00191976D01*
X02224824Y00179978D02*
X01898110Y00179978D01*
X01899447Y00167979D02*
X02212825Y00167979D01*
X01911165Y00311962D02*
X01901795Y00311962D01*
X01901795Y00323960D02*
X01911165Y00323960D01*
X01911165Y00335959D02*
X01901795Y00335959D01*
X01901795Y00347957D02*
X01911165Y00347957D01*
X01911165Y00359956D02*
X01901795Y00359956D01*
X01901795Y00371954D02*
X01911420Y00371954D01*
X01801583Y00383953D02*
X01578467Y00383953D01*
X01588580Y00371954D02*
X01598205Y00371954D01*
X01598205Y00359956D02*
X01588835Y00359956D01*
X01588835Y00347957D02*
X01598205Y00347957D01*
X01598205Y00335959D02*
X01588835Y00335959D01*
X01588835Y00323960D02*
X01598205Y00323960D01*
X01598205Y00311962D02*
X01588835Y00311962D01*
X01665575Y00311962D02*
X01676945Y00311962D01*
X01676945Y00323960D02*
X01665575Y00323960D01*
X01665575Y00335959D02*
X01676945Y00335959D01*
X01676945Y00347957D02*
X01665575Y00347957D01*
X01665575Y00359956D02*
X01676945Y00359956D01*
X01676945Y00371954D02*
X01665575Y00371954D01*
X01744315Y00371954D02*
X01755685Y00371954D01*
X01755685Y00359956D02*
X01744315Y00359956D01*
X01744315Y00347957D02*
X01755685Y00347957D01*
X01755685Y00335959D02*
X01744315Y00335959D01*
X01744315Y00323960D02*
X01755685Y00323960D01*
X01755685Y00311962D02*
X01744315Y00311962D01*
X01744315Y00299963D02*
X01755685Y00299963D01*
X01755685Y00287965D02*
X01744315Y00287965D01*
X01744315Y00275966D02*
X01755685Y00275966D01*
X01755685Y00263968D02*
X01744315Y00263968D01*
X01744315Y00251969D02*
X01755685Y00251969D01*
X01755685Y00239970D02*
X01744315Y00239970D01*
X01744315Y00227972D02*
X01755685Y00227972D01*
X01759370Y00215973D02*
X01740630Y00215973D01*
X01740630Y00203975D02*
X01759370Y00203975D01*
X01759370Y00191976D02*
X01740630Y00191976D01*
X01740630Y00179978D02*
X01759370Y00179978D01*
X01764594Y00167979D02*
X01735406Y00167979D01*
X01723407Y00155981D02*
X01776593Y00155981D01*
X01788591Y00143982D02*
X01711409Y00143982D01*
X01699410Y00131984D02*
X01800590Y00131984D01*
X01812588Y00119985D02*
X01689000Y00119985D01*
X01685166Y00107987D02*
X01824587Y00107987D01*
X01841647Y00095988D02*
X01676142Y00095988D01*
X01650000Y00125000D02*
X01631890Y00143110D01*
X01631890Y00156890D01*
X01661890Y00179978D02*
X01662552Y00179978D01*
X01661890Y00191976D02*
X01674550Y00191976D01*
X01680630Y00203975D02*
X01661890Y00203975D01*
X01661890Y00215973D02*
X01680630Y00215973D01*
X01676945Y00227972D02*
X01665575Y00227972D01*
X01665575Y00239970D02*
X01676945Y00239970D01*
X01676945Y00251969D02*
X01665575Y00251969D01*
X01665575Y00263968D02*
X01676945Y00263968D01*
X01676945Y00275966D02*
X01665575Y00275966D01*
X01665575Y00287965D02*
X01676945Y00287965D01*
X01676945Y00299963D02*
X01665575Y00299963D01*
X02500102Y00419948D02*
X02677729Y00419948D01*
X02689031Y00431947D02*
X02512101Y00431947D01*
X02524100Y00443945D02*
X02699766Y00443945D01*
X02700348Y00455944D02*
X02536098Y00455944D01*
X02548097Y00467942D02*
X02686928Y00467942D01*
X02673509Y00479941D02*
X02560095Y00479941D01*
X02572094Y00491939D02*
X02660089Y00491939D01*
X02646669Y00503938D02*
X02584092Y00503938D01*
X02596091Y00515937D02*
X02633250Y00515937D01*
X02619830Y00527935D02*
X02608089Y00527935D01*
X01504666Y01055870D02*
X01495334Y01055870D01*
X01475000Y01075000D02*
X01475000Y01525000D01*
X01475000Y01600000D01*
X01425000Y01650000D01*
X01425000Y01675000D01*
X01375000Y01725000D01*
X01325000Y01725000D01*
X01250000Y01650000D01*
X01250000Y01500000D01*
X01283685Y01499815D02*
X01295055Y01499815D01*
X01295055Y01487817D02*
X01283685Y01487817D01*
X01283685Y01475818D02*
X01295055Y01475818D01*
X01295055Y01463820D02*
X01283685Y01463820D01*
X01283685Y01451821D02*
X01295055Y01451821D01*
X01295055Y01439823D02*
X01283685Y01439823D01*
X01283685Y01427824D02*
X01295055Y01427824D01*
X01295055Y01425303D02*
X01303256Y01417102D01*
X01354224Y01417102D01*
X01362425Y01425303D01*
X01362425Y01574697D01*
X01354224Y01582898D01*
X01348740Y01582898D01*
X01348740Y01645456D01*
X01350379Y01647094D01*
X01355551Y01647094D01*
X01365807Y01651343D01*
X01373657Y01659193D01*
X01377905Y01669449D01*
X01377905Y01680551D01*
X01373657Y01690807D01*
X01365807Y01698657D01*
X01355551Y01702905D01*
X01344449Y01702905D01*
X01334193Y01698657D01*
X01326343Y01690807D01*
X01322094Y01680551D01*
X01322094Y01675379D01*
X01308740Y01662024D01*
X01308740Y01582898D01*
X01303256Y01582898D01*
X01295055Y01574697D01*
X01295055Y01425303D01*
X01216315Y01427824D02*
X01204945Y01427824D01*
X01204945Y01439823D02*
X01216315Y01439823D01*
X01216315Y01451821D02*
X01204945Y01451821D01*
X01204945Y01463820D02*
X01216315Y01463820D01*
X01216315Y01475818D02*
X01204945Y01475818D01*
X01204945Y01487817D02*
X01216315Y01487817D01*
X01216315Y01499815D02*
X01204945Y01499815D01*
X01204945Y01511814D02*
X01216315Y01511814D01*
X01216315Y01523813D02*
X01204945Y01523813D01*
X01204945Y01535811D02*
X01216315Y01535811D01*
X01216315Y01547810D02*
X01204945Y01547810D01*
X01204945Y01559808D02*
X01216315Y01559808D01*
X01216315Y01571807D02*
X01204945Y01571807D01*
X01230000Y01583805D02*
X01037089Y01583805D01*
X01027905Y01571807D02*
X01058835Y01571807D01*
X01058835Y01559808D02*
X01023912Y01559808D01*
X01007277Y01547810D02*
X01058835Y01547810D01*
X01058835Y01535811D02*
X00770000Y01535811D01*
X00770000Y01547810D02*
X00992723Y01547810D01*
X00976088Y01559808D02*
X00770000Y01559808D01*
X00770000Y01571807D02*
X00972094Y01571807D01*
X00973443Y01583805D02*
X00770000Y01583805D01*
X00770000Y01595804D02*
X00981339Y01595804D01*
X01004518Y01607802D02*
X00770000Y01607802D01*
X00770000Y01619801D02*
X01016517Y01619801D01*
X01028515Y01631799D02*
X00770000Y01631799D01*
X00772082Y01643798D02*
X00958450Y01643798D01*
X00956472Y01655796D02*
X00784080Y01655796D01*
X00796079Y01667795D02*
X00956472Y01667795D01*
X00956472Y01679793D02*
X00808077Y01679793D01*
X00820076Y01691792D02*
X00956472Y01691792D01*
X00956472Y01703790D02*
X00832074Y01703790D01*
X00844073Y01715789D02*
X00956472Y01715789D01*
X00956472Y01727787D02*
X00856071Y01727787D01*
X00868070Y01739786D02*
X00956472Y01739786D01*
X00956472Y01751784D02*
X00880069Y01751784D01*
X00892067Y01763783D02*
X00956472Y01763783D01*
X00956472Y01775781D02*
X00904066Y01775781D01*
X01043527Y01775781D02*
X01456472Y01775781D01*
X01456472Y01763783D02*
X01043527Y01763783D01*
X01043527Y01751784D02*
X01456472Y01751784D01*
X01456472Y01739786D02*
X01388498Y01739786D01*
X01400497Y01727787D02*
X01456472Y01727787D01*
X01456472Y01715789D02*
X01412495Y01715789D01*
X01424494Y01703790D02*
X01456472Y01703790D01*
X01456472Y01691792D02*
X01436492Y01691792D01*
X01445000Y01679793D02*
X01456472Y01679793D01*
X01456472Y01667795D02*
X01445000Y01667795D01*
X01447488Y01655796D02*
X01456472Y01655796D01*
X01426915Y01619801D02*
X01348740Y01619801D01*
X01348740Y01631799D02*
X01414916Y01631799D01*
X01405000Y01643798D02*
X01348740Y01643798D01*
X01328740Y01653740D02*
X01350000Y01675000D01*
X01370260Y01655796D02*
X01405000Y01655796D01*
X01403921Y01667795D02*
X01377220Y01667795D01*
X01377905Y01679793D02*
X01391922Y01679793D01*
X01379924Y01691792D02*
X01372672Y01691792D01*
X01367925Y01703790D02*
X01332075Y01703790D01*
X01327328Y01691792D02*
X01320076Y01691792D01*
X01322094Y01679793D02*
X01308078Y01679793D01*
X01314511Y01667795D02*
X01296079Y01667795D01*
X01284080Y01655796D02*
X01308740Y01655796D01*
X01308740Y01643798D02*
X01272082Y01643798D01*
X01270000Y01631799D02*
X01308740Y01631799D01*
X01308740Y01619801D02*
X01270000Y01619801D01*
X01270000Y01607802D02*
X01308740Y01607802D01*
X01308740Y01595804D02*
X01270000Y01595804D01*
X01270000Y01583805D02*
X01308740Y01583805D01*
X01295055Y01571807D02*
X01283685Y01571807D01*
X01283685Y01559808D02*
X01295055Y01559808D01*
X01295055Y01547810D02*
X01283685Y01547810D01*
X01283685Y01535811D02*
X01295055Y01535811D01*
X01295055Y01523813D02*
X01283685Y01523813D01*
X01283685Y01511814D02*
X01295055Y01511814D01*
X01328740Y01500000D02*
X01328740Y01653740D01*
X01348740Y01607802D02*
X01438914Y01607802D01*
X01450912Y01595804D02*
X01348740Y01595804D01*
X01348740Y01583805D02*
X01455000Y01583805D01*
X01455000Y01571807D02*
X01441165Y01571807D01*
X01441165Y01574697D02*
X01432964Y01582898D01*
X01381996Y01582898D01*
X01373795Y01574697D01*
X01373795Y01425303D01*
X01381996Y01417102D01*
X01387480Y01417102D01*
X01387480Y01300019D01*
X01384193Y01298657D01*
X01376343Y01290807D01*
X01372094Y01280551D01*
X01372094Y01269449D01*
X01376343Y01259193D01*
X01384193Y01251343D01*
X01394449Y01247094D01*
X01405551Y01247094D01*
X01415807Y01251343D01*
X01423657Y01259193D01*
X01427905Y01269449D01*
X01427905Y01280551D01*
X01427480Y01281577D01*
X01427480Y01417102D01*
X01432964Y01417102D01*
X01441165Y01425303D01*
X01441165Y01574697D01*
X01441165Y01559808D02*
X01455000Y01559808D01*
X01455000Y01547810D02*
X01441165Y01547810D01*
X01441165Y01535811D02*
X01449273Y01535811D01*
X01447094Y01523813D02*
X01441165Y01523813D01*
X01441165Y01511814D02*
X01450257Y01511814D01*
X01455000Y01499815D02*
X01441165Y01499815D01*
X01441165Y01487817D02*
X01455000Y01487817D01*
X01455000Y01475818D02*
X01441165Y01475818D01*
X01441165Y01463820D02*
X01455000Y01463820D01*
X01455000Y01451821D02*
X01441165Y01451821D01*
X01441165Y01439823D02*
X01455000Y01439823D01*
X01455000Y01427824D02*
X01441165Y01427824D01*
X01427480Y01415826D02*
X01455000Y01415826D01*
X01455000Y01403827D02*
X01427480Y01403827D01*
X01427480Y01391829D02*
X01455000Y01391829D01*
X01455000Y01379830D02*
X01427480Y01379830D01*
X01427480Y01367832D02*
X01455000Y01367832D01*
X01455000Y01355833D02*
X01427480Y01355833D01*
X01427480Y01343835D02*
X01455000Y01343835D01*
X01455000Y01331836D02*
X01427480Y01331836D01*
X01427480Y01319838D02*
X01455000Y01319838D01*
X01455000Y01307839D02*
X01427480Y01307839D01*
X01427480Y01295841D02*
X01455000Y01295841D01*
X01455000Y01283842D02*
X01427480Y01283842D01*
X01427905Y01271844D02*
X01455000Y01271844D01*
X01455000Y01259845D02*
X01423927Y01259845D01*
X01407366Y01247846D02*
X01455000Y01247846D01*
X01455000Y01235848D02*
X01180000Y01235848D01*
X01180000Y01247846D02*
X01392634Y01247846D01*
X01376073Y01259845D02*
X01180000Y01259845D01*
X01180000Y01271844D02*
X01372094Y01271844D01*
X01373458Y01283842D02*
X01180000Y01283842D01*
X01188267Y01295841D02*
X01381376Y01295841D01*
X01387480Y01307839D02*
X01198172Y01307839D01*
X01201260Y01319838D02*
X01387480Y01319838D01*
X01387480Y01331836D02*
X01201260Y01331836D01*
X01201260Y01343835D02*
X01387480Y01343835D01*
X01387480Y01355833D02*
X01201260Y01355833D01*
X01201260Y01367832D02*
X01387480Y01367832D01*
X01387480Y01379830D02*
X01201260Y01379830D01*
X01201260Y01391829D02*
X01387480Y01391829D01*
X01387480Y01403827D02*
X01201260Y01403827D01*
X01201260Y01415826D02*
X01387480Y01415826D01*
X01373795Y01427824D02*
X01362425Y01427824D01*
X01362425Y01439823D02*
X01373795Y01439823D01*
X01373795Y01451821D02*
X01362425Y01451821D01*
X01362425Y01463820D02*
X01373795Y01463820D01*
X01373795Y01475818D02*
X01362425Y01475818D01*
X01362425Y01487817D02*
X01373795Y01487817D01*
X01373795Y01499815D02*
X01362425Y01499815D01*
X01362425Y01511814D02*
X01373795Y01511814D01*
X01373795Y01523813D02*
X01362425Y01523813D01*
X01362425Y01535811D02*
X01373795Y01535811D01*
X01373795Y01547810D02*
X01362425Y01547810D01*
X01362425Y01559808D02*
X01373795Y01559808D01*
X01373795Y01571807D02*
X01362425Y01571807D01*
X01407480Y01500000D02*
X01407480Y01282480D01*
X01400000Y01275000D01*
X01455000Y01223849D02*
X01180000Y01223849D01*
X01180000Y01211851D02*
X01287328Y01211851D01*
X01280882Y01199852D02*
X01180000Y01199852D01*
X01177441Y01187854D02*
X01260984Y01187854D01*
X01302905Y01127861D02*
X01455000Y01127861D01*
X01455000Y01115863D02*
X01301420Y01115863D01*
X01293328Y01103864D02*
X01455000Y01103864D01*
X01452401Y01091866D02*
X01297598Y01091866D01*
X01302905Y01079867D02*
X01447094Y01079867D01*
X01447749Y01067869D02*
X01302251Y01067869D01*
X01295334Y01055870D02*
X01454666Y01055870D01*
X01476239Y01005000D02*
X01416412Y00945173D01*
X01388292Y00945173D01*
X01388292Y00954827D01*
X01421118Y00954827D01*
X01421118Y00976713D01*
X01420028Y00980782D01*
X01417921Y00984430D01*
X01414942Y00987409D01*
X01411294Y00989516D01*
X01407225Y00990606D01*
X01388291Y00990606D01*
X01388291Y00954828D01*
X01378638Y00954828D01*
X01378638Y00990606D01*
X01368890Y00990606D01*
X01377551Y00999267D01*
X01383284Y01005000D01*
X01476239Y01005000D01*
X01467117Y00995877D02*
X01374162Y00995877D01*
X01378638Y00983879D02*
X01388291Y00983879D01*
X01388291Y00971880D02*
X01378638Y00971880D01*
X01378638Y00959882D02*
X01388291Y00959882D01*
X01378637Y00954827D02*
X01378637Y00945173D01*
X01352189Y00945173D01*
X01352189Y00954827D01*
X01378637Y00954827D01*
X01378637Y00947883D02*
X01352189Y00947883D01*
X01388292Y00947883D02*
X01419123Y00947883D01*
X01421118Y00959882D02*
X01431121Y00959882D01*
X01421118Y00971880D02*
X01443120Y00971880D01*
X01455118Y00983879D02*
X01418240Y00983879D01*
X01365587Y01043872D02*
X01272156Y01043872D01*
X01258732Y01058732D02*
X01208169Y01058732D01*
X01208169Y01084323D02*
X01239779Y01084323D01*
X01253665Y01098209D01*
X01253665Y01103665D01*
X01275000Y01125000D01*
X01275000Y01075000D02*
X01258732Y01058732D01*
X01253665Y01031873D02*
X01353589Y01031873D01*
X01349718Y01139860D02*
X01347454Y01139860D01*
X01378638Y01139860D02*
X01388291Y01139860D01*
X01388291Y01151858D02*
X01378638Y01151858D01*
X01378638Y01163857D02*
X01388291Y01163857D01*
X01388292Y01175855D02*
X01455000Y01175855D01*
X01455000Y01163857D02*
X01421118Y01163857D01*
X01421118Y01151858D02*
X01455000Y01151858D01*
X01455000Y01139860D02*
X01417211Y01139860D01*
X01421118Y01187854D02*
X01455000Y01187854D01*
X01455000Y01199852D02*
X01421118Y01199852D01*
X01415501Y01211851D02*
X01455000Y01211851D01*
X01388291Y01211851D02*
X01378638Y01211851D01*
X01378638Y01199852D02*
X01388291Y01199852D01*
X01388291Y01187854D02*
X01378638Y01187854D01*
X01351428Y01211851D02*
X01345743Y01211851D01*
X01208169Y01135504D02*
X01164496Y01135504D01*
X01150000Y01150000D01*
X01150000Y01200000D01*
X01120000Y01199852D02*
X01105000Y01199852D01*
X01105000Y01194032D02*
X01105000Y01287573D01*
X01117952Y01300526D01*
X01120000Y01305470D01*
X01120000Y01194032D01*
X01124567Y01183006D01*
X01130000Y01177573D01*
X01130000Y01141716D01*
X01141716Y01130000D01*
X01156212Y01115504D01*
X01162673Y01115504D01*
X01162673Y01098209D01*
X01163764Y01097118D01*
X01162673Y01096027D01*
X01162673Y01072618D01*
X01163764Y01071528D01*
X01162673Y01070437D01*
X01162673Y01047028D01*
X01163764Y01045937D01*
X01162673Y01044846D01*
X01162673Y01021437D01*
X01163764Y01020346D01*
X01162673Y01019256D01*
X01162673Y01001961D01*
X01123676Y01001961D01*
X01116716Y00995000D01*
X01105000Y00983284D01*
X01105000Y00922426D01*
X01099567Y00916994D01*
X01095000Y00905967D01*
X01095000Y00897426D01*
X01095000Y00897426D01*
X01095000Y00933284D01*
X01063630Y00964654D01*
X01051914Y00976370D01*
X01033193Y00976370D01*
X01033193Y00993665D01*
X01032102Y00994756D01*
X01033193Y00995847D01*
X01033193Y01019256D01*
X01032102Y01020346D01*
X01033193Y01021437D01*
X01033193Y01044846D01*
X01032102Y01045937D01*
X01033193Y01047028D01*
X01033193Y01070437D01*
X01032102Y01071528D01*
X01033193Y01072618D01*
X01033193Y01096027D01*
X01032102Y01097118D01*
X01033193Y01098209D01*
X01033193Y01116504D01*
X01043374Y01116504D01*
X01094000Y01167130D01*
X01094000Y01176573D01*
X01100433Y01183006D01*
X01105000Y01194032D01*
X01102441Y01187854D02*
X01122559Y01187854D01*
X01130000Y01175855D02*
X01094000Y01175855D01*
X01090727Y01163857D02*
X01130000Y01163857D01*
X01130000Y01151858D02*
X01078728Y01151858D01*
X01066730Y01139860D02*
X01131856Y01139860D01*
X01141716Y01130000D02*
X01141716Y01130000D01*
X01143854Y01127861D02*
X01054731Y01127861D01*
X01033193Y01115863D02*
X01155853Y01115863D01*
X01162673Y01103864D02*
X01033193Y01103864D01*
X01033193Y01091866D02*
X01162673Y01091866D01*
X01162673Y01079867D02*
X01033193Y01079867D01*
X01033193Y01067869D02*
X01162673Y01067869D01*
X01162673Y01055870D02*
X01033193Y01055870D01*
X01033193Y01043872D02*
X01162673Y01043872D01*
X01162673Y01031873D02*
X01033193Y01031873D01*
X01032574Y01019875D02*
X01163292Y01019875D01*
X01162673Y01007876D02*
X01033193Y01007876D01*
X01033193Y00995877D02*
X01117593Y00995877D01*
X01105595Y00983879D02*
X01033193Y00983879D01*
X01056404Y00971880D02*
X01105000Y00971880D01*
X01105000Y00959882D02*
X01068402Y00959882D01*
X01080401Y00947883D02*
X01105000Y00947883D01*
X01105000Y00935885D02*
X01092399Y00935885D01*
X01095000Y00923886D02*
X01105000Y00923886D01*
X01097452Y00911888D02*
X01095000Y00911888D01*
X01095000Y00899889D02*
X01095000Y00899889D01*
X01075000Y00875000D02*
X01075000Y00925000D01*
X01043630Y00956370D01*
X00987697Y00956370D01*
X00987697Y00930780D02*
X00987697Y00887697D01*
X00975000Y00875000D01*
X00967697Y00901000D02*
X00765575Y00901000D01*
X00765575Y00932374D01*
X00757374Y00940575D01*
X00751000Y00940575D01*
X00751000Y01164230D01*
X00767048Y01180279D01*
X00772327Y01175000D01*
X00766315Y01168988D01*
X00766315Y01114083D01*
X00774516Y01105882D01*
X00780000Y01105882D01*
X00780000Y01091716D01*
X00791716Y01080000D01*
X00816716Y01080000D01*
X00827094Y01069621D01*
X00838810Y01057906D01*
X00873070Y01057906D01*
X00872094Y01055551D01*
X00872094Y01052905D01*
X00869449Y01052905D01*
X00859193Y01048657D01*
X00851343Y01040807D01*
X00847094Y01030551D01*
X00847094Y01019449D01*
X00851343Y01009193D01*
X00859193Y01001343D01*
X00869449Y00997094D01*
X00874621Y00997094D01*
X00884164Y00987551D01*
X00909267Y00987551D01*
X00905401Y00983685D01*
X00856012Y00983685D01*
X00851301Y00978974D01*
X00850992Y00979509D01*
X00848013Y00982488D01*
X00844365Y00984595D01*
X00840295Y00985685D01*
X00820378Y00985685D01*
X00820378Y00953843D01*
X00812693Y00953843D01*
X00812693Y00985685D01*
X00792775Y00985685D01*
X00788706Y00984595D01*
X00785058Y00982488D01*
X00782079Y00979509D01*
X00779972Y00975861D01*
X00778882Y00971791D01*
X00778882Y00953843D01*
X00812692Y00953843D01*
X00812692Y00946157D01*
X00778882Y00946157D01*
X00778882Y00928208D01*
X00779972Y00924139D01*
X00782079Y00920491D01*
X00785058Y00917512D01*
X00788706Y00915405D01*
X00792775Y00914315D01*
X00812693Y00914315D01*
X00812693Y00946157D01*
X00820378Y00946157D01*
X00820378Y00914315D01*
X00840295Y00914315D01*
X00844365Y00915405D01*
X00848013Y00917512D01*
X00850992Y00920491D01*
X00851301Y00921026D01*
X00856012Y00916315D01*
X00910917Y00916315D01*
X00919118Y00924516D01*
X00919118Y00930000D01*
X00933284Y00930000D01*
X00942201Y00938917D01*
X00942201Y00919075D01*
X00950402Y00910874D01*
X00967697Y00910874D01*
X00967697Y00901000D01*
X00949388Y00911888D02*
X00765575Y00911888D01*
X00765575Y00923886D02*
X00780118Y00923886D01*
X00778882Y00935885D02*
X00762064Y00935885D01*
X00751000Y00947883D02*
X00812692Y00947883D01*
X00812693Y00935885D02*
X00820378Y00935885D01*
X00820378Y00923886D02*
X00812693Y00923886D01*
X00812693Y00959882D02*
X00820378Y00959882D01*
X00820378Y00971880D02*
X00812693Y00971880D01*
X00812693Y00983879D02*
X00820378Y00983879D01*
X00845604Y00983879D02*
X00905595Y00983879D01*
X00925000Y00975000D02*
X00925000Y00950000D01*
X00883465Y00950000D01*
X00918488Y00923886D02*
X00942201Y00923886D01*
X00942201Y00935885D02*
X00939169Y00935885D01*
X00925000Y00975000D02*
X00931961Y00981961D01*
X00987697Y00981961D01*
X00987697Y01007551D02*
X00892449Y01007551D01*
X00875000Y01025000D01*
X00854407Y01043872D02*
X00751000Y01043872D01*
X00751000Y01055870D02*
X00872227Y01055870D01*
X00900000Y01050000D02*
X00916858Y01033142D01*
X00987697Y01033142D01*
X00987697Y01058732D02*
X00930732Y01058732D01*
X00911559Y01077906D01*
X00847094Y01077906D01*
X00825000Y01100000D01*
X00800000Y01100000D01*
X00800000Y01141535D01*
X00766315Y01139860D02*
X00751000Y01139860D01*
X00751000Y01151858D02*
X00766315Y01151858D01*
X00766315Y01163857D02*
X00751000Y01163857D01*
X00762625Y01175855D02*
X00771472Y01175855D01*
X00766315Y01127861D02*
X00751000Y01127861D01*
X00751000Y01115863D02*
X00766315Y01115863D01*
X00780000Y01103864D02*
X00751000Y01103864D01*
X00751000Y01091866D02*
X00780000Y01091866D01*
X00751000Y01079867D02*
X00816849Y01079867D01*
X00828847Y01067869D02*
X00751000Y01067869D01*
X00751000Y01031873D02*
X00847642Y01031873D01*
X00847094Y01019875D02*
X00751000Y01019875D01*
X00751000Y01007876D02*
X00852660Y01007876D01*
X00875838Y00995877D02*
X00751000Y00995877D01*
X00751000Y00983879D02*
X00787467Y00983879D01*
X00778906Y00971880D02*
X00751000Y00971880D01*
X00751000Y00959882D02*
X00778882Y00959882D01*
X00699000Y00959882D02*
X00523942Y00959882D01*
X00520000Y00947883D02*
X00699000Y00947883D01*
X00687936Y00935885D02*
X00514169Y00935885D01*
X00502171Y00923886D02*
X00684425Y00923886D01*
X00684425Y00911888D02*
X00490172Y00911888D01*
X00475000Y00925000D02*
X00500000Y00950000D01*
X00500000Y00975000D01*
X00518587Y00995877D02*
X00699000Y00995877D01*
X00699000Y00983879D02*
X00526527Y00983879D01*
X00527905Y00971880D02*
X00699000Y00971880D01*
X00699000Y01007876D02*
X00370000Y01007876D01*
X00370000Y00995877D02*
X00481413Y00995877D01*
X00473473Y00983879D02*
X00370000Y00983879D01*
X00381404Y00971880D02*
X00472094Y00971880D01*
X00476057Y00959882D02*
X00393402Y00959882D01*
X00405401Y00947883D02*
X00469599Y00947883D01*
X00475000Y00925000D02*
X00400000Y00925000D01*
X00350000Y00975000D01*
X00350000Y01100000D01*
X00383685Y01103864D02*
X00395055Y01103864D01*
X00395055Y01091866D02*
X00383685Y01091866D01*
X00383685Y01079867D02*
X00395055Y01079867D01*
X00395055Y01067869D02*
X00383685Y01067869D01*
X00383685Y01055870D02*
X00395055Y01055870D01*
X00395055Y01043872D02*
X00383685Y01043872D01*
X00383685Y01031873D02*
X00395055Y01031873D01*
X00400484Y01019875D02*
X00378256Y01019875D01*
X00336834Y00959882D02*
X00307544Y00959882D01*
X00319543Y00947883D02*
X00348832Y00947883D01*
X00360831Y00935885D02*
X00331541Y00935885D01*
X00343540Y00923886D02*
X00372829Y00923886D01*
X00384828Y00911888D02*
X00355539Y00911888D01*
X00367537Y00899889D02*
X00684425Y00899889D01*
X00684425Y00887891D02*
X00379536Y00887891D01*
X00391534Y00875892D02*
X00684425Y00875892D01*
X00688158Y00863894D02*
X00403533Y00863894D01*
X00456996Y01019875D02*
X00479224Y01019875D01*
X00481996Y01017102D02*
X00532964Y01017102D01*
X00541165Y01025303D01*
X00541165Y01080000D01*
X00580536Y01080000D01*
X00584193Y01076343D01*
X00594449Y01072094D01*
X00605551Y01072094D01*
X00615807Y01076343D01*
X00623657Y01084193D01*
X00627905Y01094449D01*
X00627905Y01105551D01*
X00623657Y01115807D01*
X00615807Y01123657D01*
X00605551Y01127905D01*
X00594449Y01127905D01*
X00584193Y01123657D01*
X00580536Y01120000D01*
X00541165Y01120000D01*
X00541165Y01174697D01*
X00532964Y01182898D01*
X00481996Y01182898D01*
X00473795Y01174697D01*
X00473795Y01025303D01*
X00481996Y01017102D01*
X00473795Y01031873D02*
X00462425Y01031873D01*
X00462425Y01043872D02*
X00473795Y01043872D01*
X00473795Y01055870D02*
X00462425Y01055870D01*
X00462425Y01067869D02*
X00473795Y01067869D01*
X00473795Y01079867D02*
X00462425Y01079867D01*
X00462425Y01091866D02*
X00473795Y01091866D01*
X00473795Y01103864D02*
X00462425Y01103864D01*
X00462425Y01115863D02*
X00473795Y01115863D01*
X00473795Y01127861D02*
X00462425Y01127861D01*
X00462425Y01139860D02*
X00473795Y01139860D01*
X00473795Y01151858D02*
X00462425Y01151858D01*
X00462425Y01163857D02*
X00473795Y01163857D01*
X00474954Y01175855D02*
X00461266Y01175855D01*
X00448740Y01187854D02*
X00702182Y01187854D01*
X00699000Y01175855D02*
X00540007Y01175855D01*
X00541165Y01163857D02*
X00699000Y01163857D01*
X00699000Y01151858D02*
X00541165Y01151858D01*
X00541165Y01139860D02*
X00699000Y01139860D01*
X00699000Y01127861D02*
X00605657Y01127861D01*
X00594343Y01127861D02*
X00541165Y01127861D01*
X00507480Y01100000D02*
X00600000Y01100000D01*
X00619331Y01079867D02*
X00699000Y01079867D01*
X00699000Y01067869D02*
X00541165Y01067869D01*
X00541165Y01079867D02*
X00580669Y01079867D01*
X00541165Y01055870D02*
X00699000Y01055870D01*
X00699000Y01043872D02*
X00541165Y01043872D01*
X00541165Y01031873D02*
X00699000Y01031873D01*
X00699000Y01019875D02*
X00535736Y01019875D01*
X00626835Y01091866D02*
X00699000Y01091866D01*
X00699000Y01103864D02*
X00627905Y01103864D01*
X00623601Y01115863D02*
X00699000Y01115863D01*
X00713083Y01199852D02*
X00444301Y01199852D01*
X00428740Y01187129D02*
X00298407Y01187129D01*
X00269397Y01187854D02*
X00046000Y01187854D01*
X00046000Y01199852D02*
X00257399Y01199852D01*
X00252094Y01211851D02*
X00046000Y01211851D01*
X00046000Y01223849D02*
X00252094Y01223849D01*
X00252094Y01235848D02*
X00046000Y01235848D01*
X00046000Y01247846D02*
X00056472Y01247846D01*
X00056472Y01245776D02*
X00064673Y01237575D01*
X00135327Y01237575D01*
X00143527Y01245776D01*
X00143527Y01391232D01*
X00135327Y01399433D01*
X00064673Y01399433D01*
X00056472Y01391232D01*
X00056472Y01245776D01*
X00056472Y01259845D02*
X00046000Y01259845D01*
X00046000Y01271844D02*
X00056472Y01271844D01*
X00056472Y01283842D02*
X00046000Y01283842D01*
X00046000Y01295841D02*
X00056472Y01295841D01*
X00056472Y01307839D02*
X00046000Y01307839D01*
X00046000Y01319838D02*
X00056472Y01319838D01*
X00056472Y01331836D02*
X00046000Y01331836D01*
X00046000Y01343835D02*
X00056472Y01343835D01*
X00056472Y01355833D02*
X00046000Y01355833D01*
X00046000Y01367832D02*
X00056472Y01367832D01*
X00056472Y01379830D02*
X00046000Y01379830D01*
X00046000Y01391829D02*
X00057069Y01391829D01*
X00046000Y01403827D02*
X00411079Y01403827D01*
X00399080Y01391829D02*
X00142931Y01391829D01*
X00143527Y01379830D02*
X00387082Y01379830D01*
X00375083Y01367832D02*
X00143527Y01367832D01*
X00143527Y01355833D02*
X00363085Y01355833D01*
X00351086Y01343835D02*
X00143527Y01343835D01*
X00143527Y01331836D02*
X00339087Y01331836D01*
X00327089Y01319838D02*
X00143527Y01319838D01*
X00143527Y01307839D02*
X00315090Y01307839D01*
X00303092Y01295841D02*
X00143527Y01295841D01*
X00143527Y01283842D02*
X00291093Y01283842D01*
X00279095Y01271844D02*
X00143527Y01271844D01*
X00143527Y01259845D02*
X00267096Y01259845D01*
X00255098Y01247846D02*
X00143527Y01247846D01*
X00300000Y01225000D02*
X00675000Y01225000D01*
X00700000Y01250000D01*
X00700000Y01325000D01*
X00725000Y01350000D01*
X00800000Y01350000D01*
X00821300Y01331836D02*
X01062520Y01331836D01*
X01062520Y01343835D02*
X00827651Y01343835D01*
X00827788Y01355833D02*
X01062520Y01355833D01*
X01062520Y01367832D02*
X00821632Y01367832D01*
X00808068Y01319838D02*
X00723122Y01319838D01*
X00720000Y01307839D02*
X00796070Y01307839D01*
X00784071Y01295841D02*
X00720000Y01295841D01*
X00720000Y01283842D02*
X00775520Y01283842D01*
X00774000Y01271844D02*
X00720000Y01271844D01*
X00720000Y01259845D02*
X00774000Y01259845D01*
X00774000Y01247846D02*
X00720000Y01247846D01*
X00714132Y01235848D02*
X00766315Y01235848D01*
X00737080Y01223849D02*
X00702134Y01223849D01*
X00690135Y01211851D02*
X00725081Y01211851D01*
X00680000Y01259845D02*
X00643527Y01259845D01*
X00643527Y01271844D02*
X00680000Y01271844D01*
X00680000Y01283842D02*
X00643527Y01283842D01*
X00643527Y01295841D02*
X00680000Y01295841D01*
X00680000Y01307839D02*
X00643527Y01307839D01*
X00643527Y01319838D02*
X00680000Y01319838D01*
X00680000Y01331836D02*
X00643527Y01331836D01*
X00643527Y01343835D02*
X00690550Y01343835D01*
X00702549Y01355833D02*
X00643527Y01355833D01*
X00643527Y01367832D02*
X00714547Y01367832D01*
X00697765Y01391829D02*
X01062520Y01391829D01*
X01062520Y01403827D02*
X00709764Y01403827D01*
X00721762Y01415826D02*
X01062520Y01415826D01*
X01058835Y01427824D02*
X00733761Y01427824D01*
X00745759Y01439823D02*
X01058835Y01439823D01*
X01058835Y01451821D02*
X00757758Y01451821D01*
X00769756Y01463820D02*
X01058835Y01463820D01*
X01058835Y01475818D02*
X00770000Y01475818D01*
X00770000Y01487817D02*
X01058835Y01487817D01*
X01058835Y01499815D02*
X00770000Y01499815D01*
X00770000Y01511814D02*
X01058835Y01511814D01*
X01058835Y01523813D02*
X00770000Y01523813D01*
X00683681Y01379830D02*
X01062520Y01379830D01*
X01122520Y01379830D02*
X01141260Y01379830D01*
X01141260Y01367832D02*
X01122520Y01367832D01*
X01122520Y01355833D02*
X01141260Y01355833D01*
X01141260Y01343835D02*
X01122520Y01343835D01*
X01122520Y01331836D02*
X01139410Y01331836D01*
X01127411Y01319838D02*
X01122520Y01319838D01*
X01120000Y01295841D02*
X01113267Y01295841D01*
X01120000Y01283842D02*
X01105000Y01283842D01*
X01105000Y01271844D02*
X01120000Y01271844D01*
X01120000Y01259845D02*
X01105000Y01259845D01*
X01105000Y01247846D02*
X01120000Y01247846D01*
X01120000Y01235848D02*
X01105000Y01235848D01*
X01105000Y01223849D02*
X01120000Y01223849D01*
X01120000Y01211851D02*
X01105000Y01211851D01*
X01045000Y01211851D02*
X01013697Y01211851D01*
X01013697Y01223849D02*
X01045000Y01223849D01*
X01045000Y01235848D02*
X01013697Y01235848D01*
X01013697Y01247846D02*
X01045000Y01247846D01*
X01045000Y01259845D02*
X01013697Y01259845D01*
X01011887Y01271844D02*
X01045000Y01271844D01*
X01045000Y01283842D02*
X01002927Y01283842D01*
X00990929Y01295841D02*
X01045000Y01295841D01*
X01045775Y01307839D02*
X00978930Y01307839D01*
X00966932Y01319838D02*
X01052411Y01319838D01*
X01122520Y01391829D02*
X01141260Y01391829D01*
X01141260Y01403827D02*
X01122520Y01403827D01*
X01122520Y01415826D02*
X01141260Y01415826D01*
X01137575Y01427824D02*
X01126205Y01427824D01*
X01126205Y01439823D02*
X01137575Y01439823D01*
X01137575Y01451821D02*
X01126205Y01451821D01*
X01126205Y01463820D02*
X01137575Y01463820D01*
X01137575Y01475818D02*
X01126205Y01475818D01*
X01126205Y01487817D02*
X01137575Y01487817D01*
X01137575Y01499815D02*
X01126205Y01499815D01*
X01126205Y01511814D02*
X01137575Y01511814D01*
X01137575Y01523813D02*
X01126205Y01523813D01*
X01126205Y01535811D02*
X01137575Y01535811D01*
X01137575Y01547810D02*
X01126205Y01547810D01*
X01126205Y01559808D02*
X01137575Y01559808D01*
X01137575Y01571807D02*
X01126205Y01571807D01*
X01073085Y01619801D02*
X01230000Y01619801D01*
X01230000Y01631799D02*
X01085083Y01631799D01*
X01097082Y01643798D02*
X01230000Y01643798D01*
X01230000Y01655796D02*
X01220260Y01655796D01*
X01227220Y01667795D02*
X01239511Y01667795D01*
X01227905Y01679793D02*
X01251509Y01679793D01*
X01263508Y01691792D02*
X01222672Y01691792D01*
X01200000Y01675000D02*
X01100000Y01675000D01*
X01000000Y01575000D01*
X01049088Y01595804D02*
X01230000Y01595804D01*
X01230000Y01607802D02*
X01061086Y01607802D01*
X01052512Y01655796D02*
X01043527Y01655796D01*
X01043527Y01667795D02*
X01064511Y01667795D01*
X01076509Y01679793D02*
X01043527Y01679793D01*
X01043527Y01691792D02*
X01088508Y01691792D01*
X01043527Y01703790D02*
X01275506Y01703790D01*
X01287505Y01715789D02*
X01043527Y01715789D01*
X01043527Y01727787D02*
X01299503Y01727787D01*
X01311502Y01739786D02*
X01043527Y01739786D01*
X00669562Y01247846D02*
X00643527Y01247846D01*
X00428740Y01187129D02*
X00428740Y01100000D01*
X00395055Y01115863D02*
X00383685Y01115863D01*
X00383685Y01127861D02*
X00395055Y01127861D01*
X00395055Y01139860D02*
X00383685Y01139860D01*
X00383685Y01151858D02*
X00395055Y01151858D01*
X00395055Y01163857D02*
X00383685Y01163857D01*
X00875000Y01183465D02*
X00916535Y01183465D01*
X00925000Y01175000D01*
X00925000Y01128284D01*
X00943371Y01109913D01*
X00987697Y01109913D01*
X00987697Y01084323D02*
X00940677Y01084323D01*
X00908465Y01116535D01*
X00875000Y01116535D01*
X00987697Y01161094D02*
X00987697Y01200000D01*
X01013697Y01199852D02*
X01045000Y01199852D01*
X01047559Y01187854D02*
X01010808Y01187854D01*
X01030136Y01175855D02*
X01048985Y01175855D01*
X01036987Y01163857D02*
X01033193Y01163857D01*
X01145000Y00959882D02*
X01160673Y00959882D01*
X01160800Y00947883D02*
X01145000Y00947883D01*
X01145000Y00935885D02*
X01162673Y00935885D01*
X01162673Y00923886D02*
X01145000Y00923886D01*
X01152548Y00911888D02*
X01169860Y00911888D01*
D19*
X01175000Y00875000D03*
X01175000Y00775000D03*
X01100000Y00650000D03*
X01125000Y00625000D03*
X01225000Y00575000D03*
X01300000Y00575000D03*
X01350000Y00750000D03*
X01350000Y00825000D03*
X01375000Y00950000D03*
X01525000Y00975000D03*
X01525000Y01075000D03*
X01550000Y01100000D03*
X01525000Y01150000D03*
X01575000Y01200000D03*
X01700000Y01300000D03*
X01775000Y01225000D03*
X01775000Y01175000D03*
X01925000Y01250000D03*
X01925000Y01300000D03*
X01900000Y01400000D03*
X01825000Y01400000D03*
X01650000Y01450000D03*
X01650000Y01550000D03*
X01825000Y01550000D03*
X01975000Y01550000D03*
X02025000Y01550000D03*
X02125000Y01675000D03*
X02225000Y01575000D03*
X02350000Y01500000D03*
X02300000Y01450000D03*
X02212500Y01412500D03*
X02250000Y01375000D03*
X02350000Y01375000D03*
X02425000Y01400000D03*
X02650000Y01500000D03*
X02700000Y01225000D03*
X03000000Y01050000D03*
X02975000Y00850000D03*
X02975000Y00800000D03*
X02925000Y00750000D03*
X02875000Y00775000D03*
X02700000Y00850000D03*
X02500000Y00825000D03*
X02475000Y00775000D03*
X02425000Y00775000D03*
X02400000Y00675000D03*
X02475000Y00675000D03*
X02525000Y00650000D03*
X02500000Y00575000D03*
X02425000Y00575000D03*
X02275000Y00550000D03*
X02275000Y00475000D03*
X02175000Y00575000D03*
X02175000Y00625000D03*
X02275000Y00675000D03*
X02275000Y00775000D03*
X02250000Y00800000D03*
X02075000Y00775000D03*
X02075000Y00700000D03*
X02025000Y00700000D03*
X01875000Y00675000D03*
X01800000Y00700000D03*
X01775000Y00675000D03*
X01750000Y00700000D03*
X01700000Y00700000D03*
X01725000Y00650000D03*
X01800000Y00625000D03*
X01900000Y00575000D03*
X01925000Y00525000D03*
X01850000Y00475000D03*
X01825000Y00500000D03*
X01825000Y00400000D03*
X01600000Y00500000D03*
X01525000Y00500000D03*
X01525000Y00725000D03*
X01700000Y00800000D03*
X01750000Y00850000D03*
X01825000Y00775000D03*
X01600000Y00850000D03*
X01700000Y00975000D03*
X01850000Y00950000D03*
X01850000Y01050000D03*
X02150000Y01075000D03*
X02200000Y00975000D03*
X02325000Y01050000D03*
X02350000Y01075000D03*
X02150000Y01350000D03*
X01475000Y01525000D03*
X01350000Y01675000D03*
X01200000Y01675000D03*
X01000000Y01575000D03*
X01250000Y01500000D03*
X01400000Y01275000D03*
X01425000Y01200000D03*
X01275000Y01125000D03*
X01275000Y01075000D03*
X01475000Y01075000D03*
X01075000Y01075000D03*
X00900000Y01050000D03*
X00875000Y01025000D03*
X00800000Y01025000D03*
X00600000Y01100000D03*
X00500000Y00975000D03*
X00350000Y01100000D03*
X00300000Y01225000D03*
X00800000Y01350000D03*
X00900000Y00725000D03*
X00950000Y00675000D03*
X02100000Y00550000D03*
D20*
X01316535Y00950000D02*
X01275000Y00950000D01*
X01255780Y00930780D01*
X01208169Y00930780D01*
X01035504Y01135504D02*
X00987697Y01135504D01*
X01035504Y01135504D02*
X01075000Y01175000D01*
X01075000Y01200000D01*
X01208169Y01161094D02*
X01261094Y01161094D01*
X01275000Y01175000D01*
X01316535Y01175000D01*
D21*
X01150000Y01200000D02*
X01150000Y01300000D01*
X01171260Y01321260D01*
X01171260Y01500000D01*
X01092520Y01500000D02*
X01092520Y01317520D01*
X01075000Y01300000D01*
X01075000Y01200000D01*
X01125000Y00900000D02*
X01125000Y00850000D01*
X01050000Y00775000D01*
X00375000Y00775000D01*
X00192520Y00957480D01*
X00192520Y01100000D01*
X00271260Y01100000D02*
X00271260Y00953740D01*
X00400000Y00825000D01*
X01025000Y00825000D01*
X01075000Y00875000D01*
X01631890Y00300000D02*
X01631890Y00156890D01*
X01600000Y00125000D01*
X01650000Y00125000D02*
X01710630Y00185630D01*
X01710630Y00300000D01*
X01789370Y00300000D02*
X01789370Y00185630D01*
X01850000Y00125000D01*
X01900000Y00125000D01*
X01868110Y00156890D01*
X01868110Y00300000D01*
X02200000Y00875000D02*
X02175000Y00900000D01*
X02200000Y00875000D02*
X02450000Y00875000D01*
X02550000Y00975000D01*
X02678329Y00975000D01*
X02752483Y00908699D01*
X02775000Y01000000D02*
X02700000Y01050000D01*
X02550000Y01050000D01*
X02475000Y00975000D01*
X02471260Y01200000D02*
X02400000Y01200000D01*
X02471260Y01200000D02*
X02571260Y01300000D01*
X02571260Y01500000D01*
X02492520Y01500000D02*
X02492520Y01392520D01*
X02425000Y01325000D01*
X02200000Y01325000D01*
X02150000Y01275000D01*
X02150000Y01200000D01*
D22*
X02650000Y01150000D02*
X02800000Y01150000D01*
X02925000Y01025000D01*
X02925000Y00900000D01*
X02700000Y00675000D01*
X02350000Y00325000D01*
X02350000Y00250000D01*
X02225000Y00125000D01*
X01900000Y00125000D01*
X01650000Y00125000D02*
X01000000Y00125000D01*
X00900000Y00225000D01*
X00900000Y00525000D01*
X00725000Y00700000D01*
D23*
X00725000Y00700000D03*
X00725000Y00900000D03*
X02650000Y01150000D03*
D24*
X02400000Y01275000D03*
X02350000Y00925000D03*
D25*
X00987697Y01200000D02*
X00987697Y01262303D01*
X00950000Y01300000D01*
X00825000Y01300000D01*
X00800000Y01275000D01*
X00800000Y01208465D01*
X00758465Y01208465D01*
X00725000Y01175000D01*
X00725000Y00900000D01*
X00750000Y00875000D01*
X00975000Y00875000D01*
M02*
