G75*
%MOIN*%
%OFA0B0*%
%FSLAX26Y26*%
%IPPOS*%
%LPD*%
%AMOC8*
5,1,8,0,0,1.08239X$1,22.5*
%
%ADD10R,0.098000X0.031000*%
%ADD11R,0.145795X0.047370*%
%ADD12R,0.141858X0.067055*%
%ADD13R,0.047370X0.145795*%
%ADD14R,0.067055X0.141858*%
%ADD15R,0.057213X0.051307*%
%ADD16R,0.051307X0.057213*%
%ADD17R,0.019811X0.039496*%
%ADD18R,0.045276X0.086614*%
%ADD19R,0.051181X0.120079*%
%ADD20C,0.035811*%
%ADD21R,0.061150X0.061150*%
%ADD22R,0.051559X0.051559*%
D10*
X01251000Y00675000D03*
X01251000Y00725000D03*
X01251000Y00775000D03*
X01251000Y00825000D03*
X01251000Y00875000D03*
X01251000Y00925000D03*
X01251000Y00975000D03*
X01251000Y01025000D03*
X01449000Y01025000D03*
X01449000Y00975000D03*
X01449000Y00925000D03*
X01449000Y00875000D03*
X01449000Y00825000D03*
X01449000Y00775000D03*
X01449000Y00725000D03*
X01449000Y00675000D03*
X01951000Y00675000D03*
X01951000Y00725000D03*
X01951000Y00775000D03*
X01951000Y00825000D03*
X01951000Y00875000D03*
X01951000Y00925000D03*
X01951000Y00975000D03*
X01951000Y01025000D03*
X02149000Y01025000D03*
X02149000Y00975000D03*
X02149000Y00925000D03*
X02149000Y00875000D03*
X02149000Y00825000D03*
X02149000Y00775000D03*
X02149000Y00725000D03*
X02149000Y00675000D03*
D11*
G36*
X02633590Y00666358D02*
X02524905Y00763533D01*
X02556478Y00798846D01*
X02665163Y00701671D01*
X02633590Y00666358D01*
G37*
G36*
X02686073Y00725057D02*
X02577388Y00822232D01*
X02608961Y00857545D01*
X02717646Y00760370D01*
X02686073Y00725057D01*
G37*
G36*
X02738556Y00783756D02*
X02629871Y00880931D01*
X02661444Y00916244D01*
X02770129Y00819069D01*
X02738556Y00783756D01*
G37*
G36*
X02791039Y00842455D02*
X02682354Y00939630D01*
X02713927Y00974943D01*
X02822612Y00877768D01*
X02791039Y00842455D01*
G37*
G36*
X02843522Y00901154D02*
X02734837Y00998329D01*
X02766410Y01033642D01*
X02875095Y00936467D01*
X02843522Y00901154D01*
G37*
D12*
G36*
X03060052Y00818459D02*
X02954301Y00913011D01*
X02998994Y00962999D01*
X03104745Y00868447D01*
X03060052Y00818459D01*
G37*
G36*
X02726785Y00445721D02*
X02621034Y00540273D01*
X02665727Y00590261D01*
X02771478Y00495709D01*
X02726785Y00445721D01*
G37*
D13*
X02728740Y01500000D03*
X02650000Y01500000D03*
X02571260Y01500000D03*
X02492520Y01500000D03*
X02807480Y01500000D03*
X01407480Y01500000D03*
X01328740Y01500000D03*
X01250000Y01500000D03*
X01171260Y01500000D03*
X01092520Y01500000D03*
X00507480Y01100000D03*
X00428740Y01100000D03*
X00350000Y01100000D03*
X00271260Y01100000D03*
X00192520Y01100000D03*
D14*
X00100000Y01318504D03*
X00600000Y01318504D03*
X01000000Y01718504D03*
X01500000Y01718504D03*
X02400000Y01718504D03*
X02900000Y01718504D03*
D15*
X01750000Y01533465D03*
X01750000Y01466535D03*
X00850000Y01466535D03*
X00850000Y01533465D03*
X02350000Y00583465D03*
X02350000Y00516535D03*
D16*
X02816535Y01300000D03*
X02883465Y01300000D03*
D17*
X01937008Y00348425D03*
X01917323Y00348425D03*
X01897638Y00348425D03*
X01877953Y00348425D03*
X01858268Y00348425D03*
X01838583Y00348425D03*
X01818898Y00348425D03*
X01799213Y00348425D03*
X01779528Y00348425D03*
X01759843Y00348425D03*
X01740157Y00348425D03*
X01720472Y00348425D03*
X01700787Y00348425D03*
X01681102Y00348425D03*
X01661417Y00348425D03*
X01641732Y00348425D03*
X01622047Y00348425D03*
X01602362Y00348425D03*
X01582677Y00348425D03*
X01562992Y00348425D03*
D18*
X01441929Y00285433D03*
X02058071Y00285433D03*
D19*
X02011811Y00268701D03*
X01488189Y00268701D03*
D20*
X01825000Y00400000D03*
X01850000Y00475000D03*
X01825000Y00500000D03*
X01925000Y00525000D03*
X01900000Y00575000D03*
X01800000Y00625000D03*
X01775000Y00675000D03*
X01750000Y00700000D03*
X01800000Y00700000D03*
X01875000Y00675000D03*
X01825000Y00775000D03*
X01750000Y00850000D03*
X01700000Y00800000D03*
X01600000Y00850000D03*
X01525000Y00725000D03*
X01700000Y00700000D03*
X01725000Y00650000D03*
X01600000Y00500000D03*
X01525000Y00500000D03*
X01300000Y00575000D03*
X01225000Y00575000D03*
X01125000Y00625000D03*
X01100000Y00650000D03*
X00950000Y00675000D03*
X00900000Y00725000D03*
X01175000Y00775000D03*
X01175000Y00875000D03*
X01350000Y00825000D03*
X01350000Y00750000D03*
X01375000Y00950000D03*
X01525000Y00975000D03*
X01525000Y01075000D03*
X01550000Y01100000D03*
X01525000Y01150000D03*
X01575000Y01200000D03*
X01700000Y01300000D03*
X01775000Y01225000D03*
X01775000Y01175000D03*
X01925000Y01250000D03*
X01925000Y01300000D03*
X01900000Y01400000D03*
X01825000Y01400000D03*
X01650000Y01450000D03*
X01650000Y01550000D03*
X01825000Y01550000D03*
X01975000Y01550000D03*
X02025000Y01550000D03*
X02125000Y01675000D03*
X02225000Y01575000D03*
X02350000Y01500000D03*
X02300000Y01450000D03*
X02212500Y01412500D03*
X02250000Y01375000D03*
X02350000Y01375000D03*
X02425000Y01400000D03*
X02650000Y01500000D03*
X02700000Y01225000D03*
X03000000Y01050000D03*
X02975000Y00850000D03*
X02975000Y00800000D03*
X02925000Y00750000D03*
X02875000Y00775000D03*
X02700000Y00850000D03*
X02500000Y00825000D03*
X02475000Y00775000D03*
X02425000Y00775000D03*
X02400000Y00675000D03*
X02475000Y00675000D03*
X02525000Y00650000D03*
X02500000Y00575000D03*
X02425000Y00575000D03*
X02275000Y00550000D03*
X02275000Y00475000D03*
X02175000Y00575000D03*
X02175000Y00625000D03*
X02275000Y00675000D03*
X02275000Y00775000D03*
X02250000Y00800000D03*
X02075000Y00775000D03*
X02075000Y00700000D03*
X02025000Y00700000D03*
X02100000Y00550000D03*
X01850000Y00950000D03*
X01850000Y01050000D03*
X01700000Y00975000D03*
X01475000Y01075000D03*
X01425000Y01200000D03*
X01400000Y01275000D03*
X01275000Y01125000D03*
X01275000Y01075000D03*
X01075000Y01075000D03*
X00900000Y01050000D03*
X00875000Y01025000D03*
X00800000Y01025000D03*
X00600000Y01100000D03*
X00500000Y00975000D03*
X00350000Y01100000D03*
X00300000Y01225000D03*
X00800000Y01350000D03*
X01000000Y01575000D03*
X01200000Y01675000D03*
X01350000Y01675000D03*
X01475000Y01525000D03*
X01250000Y01500000D03*
X02150000Y01350000D03*
X02150000Y01075000D03*
X02200000Y00975000D03*
X02325000Y01050000D03*
X02350000Y01075000D03*
D21*
X00725000Y00700000D03*
X00725000Y00900000D03*
X02650000Y01150000D03*
D22*
X02400000Y01275000D03*
X02350000Y00925000D03*
M02*
